<?xml version='1.0' encoding='utf-8'?>
<!DOCTYPE svg>
<!-- Generator: Adobe Illustrator 16.0.0, SVG Export Plug-In . SVG Version: 6.00 Build 0)  -->
<svg xmlns="http://www.w3.org/2000/svg" enable-background="new 0 0 32 32" x="0px" width="0.444444in" gorn="0" id="_x30_" y="0px" viewBox="0 0 32 32" xml:space="preserve"  xmlns:xml="http://www.w3.org/XML/1998/namespace" height="0.444444in" version="1.1">
    <desc >
        <referenceFile >arduino_Uno_Rev3_icon.svg</referenceFile>
    </desc>
    <g gorn="0.1" id="icon" >
        <rect width="32"  fill="#0F7391" height="32"/>
        <g >
            <g gorn="0.1.1.0" id="_x30_.1.0.96.0.3" >
                <circle gorn="0.1.1.0.0" id="_x30_.1.0.96.0.3.0" cx="23.885" cy="6.389"  fill="#FFFFFF" r="0.453"/>
                <circle gorn="0.1.1.0.1" id="_x30_.1.0.96.0.3.1" cx="22.756" cy="6.389"  fill="#FFFFFF" r="0.453"/>
                <circle gorn="0.1.1.0.2" id="_x30_.1.0.96.0.3.2" cx="21.626" cy="6.389"  fill="#FFFFFF" r="0.453"/>
                <circle gorn="0.1.1.0.3" id="_x30_.1.0.96.0.3.3" cx="20.497" cy="6.389"  fill="#FFFFFF" r="0.453"/>
                <circle gorn="0.1.1.0.4" id="_x30_.1.0.96.0.3.4" cx="19.367" cy="6.389"  fill="#FFFFFF" r="0.453"/>
                <circle gorn="0.1.1.0.5" id="_x30_.1.0.96.0.3.5" cx="18.238" cy="6.389"  fill="#FFFFFF" r="0.453"/>
                <circle gorn="0.1.1.0.6" id="_x30_.1.0.96.0.3.6" cx="17.107" cy="6.389"  fill="#FFFFFF" r="0.453"/>
                <circle gorn="0.1.1.0.7" id="_x30_.1.0.96.0.3.7" cx="15.979" cy="6.389"  fill="#FFFFFF" r="0.453"/>
                <circle gorn="0.1.1.0.8" id="_x30_.1.0.96.0.3.8" cx="14.849" cy="6.389"  fill="#FFFFFF" r="0.453"/>
                <circle gorn="0.1.1.0.9" id="_x30_.1.0.96.0.3.9" cx="13.72" cy="6.389"  fill="#FFFFFF" r="0.453"/>
                <circle gorn="0.1.1.0.10" id="_x30_.1.0.96.0.3.10" cx="12.589" cy="6.389"  fill="#FFFFFF" r="0.453"/>
                <circle gorn="0.1.1.0.11" id="_x30_.1.0.96.0.3.11" cx="11.46" cy="6.389"  fill="#FFFFFF" r="0.453"/>
                <circle gorn="0.1.1.0.12" id="_x30_.1.0.96.0.3.12" cx="10.33" cy="6.389"  fill="#FFFFFF" r="0.453"/>
                <circle gorn="0.1.1.0.13" id="_x30_.1.0.96.0.3.13" cx="9.202" cy="6.389"  fill="#FFFFFF" r="0.453"/>
            </g>
            <g gorn="0.1.1.1" id="_x30_.1.0.96.0.4" >
                <circle gorn="0.1.1.1.0" id="_x30_.1.0.96.0.4.0" cx="23.93" cy="18.252"  fill="#FFFFFF" r="0.452"/>
                <circle gorn="0.1.1.1.1" id="_x30_.1.0.96.0.4.1" cx="25.006" cy="18.04"  fill="#FFFFFF" r="0.452"/>
                <circle gorn="0.1.1.1.2" id="_x30_.1.0.96.0.4.2" cx="26.023" cy="17.633"  fill="#FFFFFF" r="0.453"/>
                <circle gorn="0.1.1.1.3" id="_x30_.1.0.96.0.4.3" cx="26.951" cy="17.049"  fill="#FFFFFF" r="0.452"/>
                <circle gorn="0.1.1.1.4" id="_x30_.1.0.96.0.4.4" cx="27.753" cy="16.303"  fill="#FFFFFF" r="0.452"/>
                <circle gorn="0.1.1.1.5" id="_x30_.1.0.96.0.4.5" cx="28.408" cy="15.423"  fill="#FFFFFF" r="0.452"/>
                <circle gorn="0.1.1.1.6" id="_x30_.1.0.96.0.4.6" cx="28.889" cy="14.439"  fill="#FFFFFF" r="0.452"/>
                <circle gorn="0.1.1.1.7" id="_x30_.1.0.96.0.4.7" cx="29.182" cy="13.383"  fill="#FFFFFF" r="0.452"/>
                <circle gorn="0.1.1.1.8" id="_x30_.1.0.96.0.4.8" cx="29.275" cy="12.29"  fill="#FFFFFF" r="0.452"/>
                <circle gorn="0.1.1.1.9" id="_x30_.1.0.96.0.4.9" cx="29.17" cy="11.2"  fill="#FFFFFF" r="0.452"/>
                <circle gorn="0.1.1.1.10" id="_x30_.1.0.96.0.4.10" cx="28.863" cy="10.147"  fill="#FFFFFF" r="0.452"/>
                <circle gorn="0.1.1.1.11" id="_x30_.1.0.96.0.4.11" cx="28.373" cy="9.168"  fill="#FFFFFF" r="0.452"/>
                <circle gorn="0.1.1.1.12" id="_x30_.1.0.96.0.4.12" cx="27.709" cy="8.296"  fill="#FFFFFF" r="0.452"/>
                <path d="M26.896,7.107c0.25,0,0.453,0.203,0.453,0.453s-0.201,0.454-0.453,0.454c-0.25,0-0.451-0.203-0.451-0.454C26.445,7.31,26.648,7.107,26.896,7.107z" gorn="0.1.1.1.13" id="_x30_.1.0.96.0.4.13"  fill="#FFFFFF"/>
                <circle gorn="0.1.1.1.14" id="_x30_.1.0.96.0.4.14" cx="25.965" cy="6.985"  fill="#FFFFFF" r="0.453"/>
                <circle gorn="0.1.1.1.15" id="_x30_.1.0.96.0.4.15" cx="24.941" cy="6.59"  fill="#FFFFFF" r="0.453"/>
            </g>
            <g gorn="0.1.1.2" id="_x30_.1.0.96.0.5" >
                <circle gorn="0.1.1.2.0" id="_x30_.1.0.96.0.5.0" cx="7.962" cy="18.177"  fill="#FFFFFF" r="0.453"/>
                <path d="M6.902,17.498c0.25,0,0.453,0.203,0.453,0.453s-0.203,0.453-0.453,0.453c-0.249,0-0.452-0.202-0.452-0.453C6.45,17.701,6.653,17.498,6.902,17.498z" gorn="0.1.1.2.1" id="_x30_.1.0.96.0.5.1"  fill="#FFFFFF"/>
                <circle gorn="0.1.1.2.2" id="_x30_.1.0.96.0.5.2" cx="5.899" cy="17.537"  fill="#FFFFFF" r="0.453"/>
                <circle gorn="0.1.1.2.3" id="_x30_.1.0.96.0.5.3" cx="4.99" cy="16.946"  fill="#FFFFFF" r="0.453"/>
                <circle gorn="0.1.1.2.4" id="_x30_.1.0.96.0.5.4" cx="4.203" cy="16.199"  fill="#FFFFFF" r="0.453"/>
                <circle gorn="0.1.1.2.5" id="_x30_.1.0.96.0.5.5" cx="3.566" cy="15.321"  fill="#FFFFFF" r="0.453"/>
                <circle gorn="0.1.1.2.6" id="_x30_.1.0.96.0.5.6" cx="3.1" cy="14.342"  fill="#FFFFFF" r="0.453"/>
                <circle gorn="0.1.1.2.7" id="_x30_.1.0.96.0.5.7" cx="2.818" cy="13.295"  fill="#FFFFFF" r="0.453"/>
                <circle gorn="0.1.1.2.8" id="_x30_.1.0.96.0.5.8" cx="2.733" cy="12.214"  fill="#FFFFFF" r="0.453"/>
                <path d="M2.894,10.686c0.247,0.026,0.429,0.25,0.402,0.497c-0.026,0.249-0.249,0.43-0.497,0.403c-0.249-0.026-0.428-0.249-0.403-0.5C2.423,10.839,2.646,10.658,2.894,10.686z" gorn="0.1.1.2.9" id="_x30_.1.0.96.0.5.9"  fill="#FFFFFF"/>
                <path d="M3.284,9.661c0.238,0.071,0.376,0.324,0.305,0.562c-0.071,0.241-0.323,0.378-0.563,0.307c-0.239-0.071-0.376-0.324-0.304-0.565C2.792,9.727,3.044,9.589,3.284,9.661z" gorn="0.1.1.2.10" id="_x30_.1.0.96.0.5.10"  fill="#FFFFFF"/>
                <circle gorn="0.1.1.2.11" id="_x30_.1.0.96.0.5.11" cx="3.646" cy="9.129"  fill="#FFFFFF" r="0.453"/>
                <circle gorn="0.1.1.2.12" id="_x30_.1.0.96.0.5.12" cx="4.307" cy="8.268"  fill="#FFFFFF" r="0.452"/>
                <circle gorn="0.1.1.2.13" id="_x30_.1.0.96.0.5.13" cx="5.111" cy="7.543"  fill="#FFFFFF" r="0.453"/>
                <path d="M6.038,6.523c0.25,0,0.454,0.203,0.454,0.453S6.289,7.429,6.038,7.429c-0.249,0-0.452-0.203-0.452-0.453S5.789,6.523,6.038,6.523z" gorn="0.1.1.2.14" id="_x30_.1.0.96.0.5.14"  fill="#FFFFFF"/>
                <circle gorn="0.1.1.2.15" id="_x30_.1.0.96.0.5.15" cx="7.05" cy="6.587"  fill="#FFFFFF" r="0.453"/>
                <circle gorn="0.1.1.2.16" id="_x30_.1.0.96.0.5.16" cx="8.117" cy="6.389"  fill="#FFFFFF" r="0.453"/>
                <circle gorn="0.1.1.2.17" id="_x30_.1.0.96.0.5.17" cx="9.202" cy="6.389"  fill="#FFFFFF" r="0.453"/>
            </g>
            <g gorn="0.1.1.3" id="_x30_.1.0.96.0.6" >
                <circle gorn="0.1.1.3.0" id="_x30_.1.0.96.0.6.1" cx="22.756" cy="18.292"  fill="#FFFFFF" r="0.453"/>
                <path d="M21.626,17.839c0.25,0,0.453,0.202,0.453,0.452c0,0.251-0.202,0.454-0.453,0.454c-0.25,0-0.454-0.203-0.454-0.454C21.173,18.042,21.376,17.839,21.626,17.839z" gorn="0.1.1.3.1" id="_x30_.1.0.96.0.6.2"  fill="#FFFFFF"/>
                <circle gorn="0.1.1.3.2" id="_x30_.1.0.96.0.6.3" cx="20.497" cy="18.292"  fill="#FFFFFF" r="0.453"/>
                <circle gorn="0.1.1.3.3" id="_x30_.1.0.96.0.6.4" cx="19.367" cy="18.292"  fill="#FFFFFF" r="0.453"/>
                <circle gorn="0.1.1.3.4" id="_x30_.1.0.96.0.6.5" cx="18.238" cy="18.292"  fill="#FFFFFF" r="0.453"/>
                <circle gorn="0.1.1.3.5" id="_x30_.1.0.96.0.6.6" cx="17.107" cy="18.292"  fill="#FFFFFF" r="0.453"/>
                <circle gorn="0.1.1.3.6" id="_x30_.1.0.96.0.6.7" cx="15.979" cy="18.292"  fill="#FFFFFF" r="0.453"/>
                <circle gorn="0.1.1.3.7" id="_x30_.1.0.96.0.6.8" cx="14.849" cy="18.292"  fill="#FFFFFF" r="0.453"/>
                <circle gorn="0.1.1.3.8" id="_x30_.1.0.96.0.6.9" cx="13.72" cy="18.292"  fill="#FFFFFF" r="0.453"/>
                <circle gorn="0.1.1.3.9" id="_x30_.1.0.96.0.6.10" cx="12.589" cy="18.292"  fill="#FFFFFF" r="0.453"/>
                <circle gorn="0.1.1.3.10" id="_x30_.1.0.96.0.6.11" cx="11.46" cy="18.292"  fill="#FFFFFF" r="0.453"/>
                <circle gorn="0.1.1.3.11" id="_x30_.1.0.96.0.6.12" cx="10.33" cy="18.292"  fill="#FFFFFF" r="0.453"/>
                <circle gorn="0.1.1.3.12" id="_x30_.1.0.96.0.6.13" cx="9.202" cy="18.292"  fill="#FFFFFF" r="0.453"/>
            </g>
            <g gorn="0.1.1.4" id="_x30_.1.0.96.1" >
                <path d="M9.358,15.986c-0.792,0-1.388-0.164-1.789-0.493c-0.387-0.319-0.636-0.7-0.746-1.143c-0.056-0.224-0.095-0.463-0.12-0.717c-0.023-0.253-0.036-0.526-0.036-0.816V8.644h0.749v4.16c0,0.943,0.15,1.688,0.456,1.992c0.301,0.3,0.743,0.449,1.327,0.449c0.588,0,1.191-0.149,1.491-0.449c0.304-0.302,0.456-1.047,0.456-1.992v-4.16h0.765v4.173c0,0.868-0.1,1.511-0.301,1.933C11.213,15.574,10.559,15.986,9.358,15.986z" gorn="0.1.1.4.0" id="_x30_.1.0.96.1.0"  fill="#FFFFFF"/>
                <path d="M18.993,15.85H18.24l-3.781-5.924v5.936h-0.635V8.644h0.701l3.715,5.942V8.644h0.752L18.993,15.85L18.993,15.85z" gorn="0.1.1.4.1" id="_x30_.1.0.96.1.1"  fill="#FFFFFF"/>
                <path d="M23.505,8.47c0.459,0,0.884,0.092,1.271,0.275c0.39,0.184,0.723,0.442,1.002,0.777c0.281,0.335,0.496,0.738,0.652,1.209c0.156,0.47,0.233,0.994,0.233,1.569c0,0.574-0.078,1.097-0.233,1.567c-0.156,0.472-0.373,0.876-0.652,1.212s-0.613,0.597-1.002,0.78c-0.385,0.184-0.812,0.275-1.271,0.275c-0.462,0-0.887-0.093-1.276-0.275c-0.388-0.184-0.722-0.443-1.004-0.78c-0.283-0.336-0.5-0.741-0.656-1.212c-0.154-0.469-0.233-0.993-0.233-1.567c0-0.575,0.079-1.098,0.233-1.569c0.156-0.471,0.375-0.875,0.656-1.209c0.282-0.335,0.616-0.594,1.004-0.777C22.616,8.561,23.042,8.47,23.505,8.47z M23.5,15.294c0.327,0,0.629-0.067,0.904-0.205c0.275-0.136,0.515-0.333,0.714-0.589c0.2-0.258,0.356-0.571,0.469-0.94c0.112-0.37,0.168-0.79,0.168-1.26c0-0.472-0.056-0.892-0.168-1.262c-0.11-0.369-0.267-0.682-0.466-0.939c-0.198-0.256-0.436-0.453-0.708-0.587c-0.274-0.133-0.573-0.2-0.896-0.2c-0.33,0-0.633,0.066-0.91,0.2c-0.279,0.134-0.519,0.329-0.721,0.583c-0.203,0.255-0.359,0.568-0.475,0.939c-0.113,0.372-0.171,0.793-0.171,1.264c0,0.471,0.057,0.891,0.17,1.26c0.11,0.37,0.267,0.683,0.469,0.939c0.199,0.257,0.438,0.455,0.713,0.591C22.869,15.227,23.172,15.294,23.5,15.294z" gorn="0.1.1.4.2" id="_x30_.1.0.96.1.2"  fill="#FFFFFF"/>
            </g>
        </g>
        <g >
            <g gorn="0.1.2.0" id="_x30_.1.0.96.0.0" >
                <path d="M23.283,25.814c0.377-0.414,0.666-0.791,1.014-1.103c1.318-1.181,2.805-1.618,4.503-0.901c1.608,0.678,2.479,2.354,2.13,4.063c-0.324,1.578-1.841,2.779-3.498,2.836c-1.535,0.053-2.688-0.635-3.649-1.749c-0.146-0.17-0.287-0.351-0.474-0.577c-0.133,0.156-0.235,0.275-0.336,0.4c-1.029,1.296-2.306,2.031-4.022,1.92c-1.683-0.107-3.222-1.654-3.325-3.334c-0.134-2.131,1.491-3.879,3.749-3.898c1.494-0.013,2.663,0.76,3.575,1.92C23.049,25.52,23.148,25.646,23.283,25.814z" gorn="0.1.2.0.0" id="_x30_.1.0.96.0.0.0"  fill="#FFFFFF"/>
                <path d="M19.592,24.652c-1.554-0.002-2.689,0.994-2.814,2.283c-0.111,1.142,0.796,2.283,2.043,2.553c1.229,0.268,2.213-0.243,2.953-1.135c1.139-1.367,1.098-1.131,0.015-2.486C21.186,25.113,20.363,24.691,19.592,24.652z" gorn="0.1.2.0.1" id="_x30_.1.0.96.0.0.1"  fill="#0F7391"/>
                <path d="M27.293,24.643c-0.189,0.014-0.329,0.01-0.462,0.037c-1.319,0.266-2.146,1.141-2.767,2.258c-0.049,0.088-0.051,0.25-0.002,0.336c0.562,0.971,1.263,1.802,2.379,2.152c1.08,0.34,2.027,0.059,2.773-0.771c0.668-0.744,0.82-1.625,0.378-2.543C29.124,25.143,28.289,24.713,27.293,24.643z" gorn="0.1.2.0.2" id="_x30_.1.0.96.0.0.2"  fill="#0F7391"/>
            </g>
            <g gorn="0.1.2.1" id="_x30_.1.0.96.0.1" >
                <path d="M20.704,27.377c0,0.035-0.028,0.063-0.063,0.063h-2.297c-0.035,0-0.064-0.027-0.064-0.063v-0.693c0-0.035,0.029-0.063,0.064-0.063h2.297c0.035,0,0.063,0.028,0.063,0.063V27.377z" gorn="0.1.2.1.0" id="_x30_.1.0.96.0.1.0"  fill="#FFFFFF"/>
            </g>
            <g gorn="0.1.2.2" id="_x30_.1.0.96.0.2" >
                <path d="M28.292,26.684c0-0.035-0.028-0.063-0.063-0.063h-0.678c-0.033,0-0.063-0.027-0.063-0.063v-0.677c0-0.034-0.028-0.063-0.063-0.063H26.73c-0.035,0-0.063,0.029-0.063,0.063v0.677c0,0.035-0.028,0.063-0.063,0.063h-0.676c-0.035,0-0.064,0.027-0.064,0.063v0.694c0,0.035,0.029,0.063,0.064,0.063h0.676c0.035,0,0.063,0.029,0.063,0.063v0.676c0,0.034,0.028,0.063,0.063,0.063h0.694c0.034,0,0.063-0.028,0.063-0.063v-0.676c0-0.035,0.027-0.063,0.063-0.063h0.678c0.035,0,0.063-0.028,0.063-0.063V26.684z" gorn="0.1.2.2.0" id="_x30_.1.0.96.0.2.0"  fill="#FFFFFF"/>
            </g>
        </g>
    </g>
</svg>
