G04*
G04 #@! TF.GenerationSoftware,Altium Limited,Altium Designer,19.0.14 (431)*
G04*
G04 Layer_Physical_Order=2*
G04 Layer_Color=16711680*
%FSLAX25Y25*%
%MOIN*%
G70*
G01*
G75*
%ADD13C,0.05906*%
G04:AMPARAMS|DCode=14|XSize=610.24mil|YSize=51.18mil|CornerRadius=25.59mil|HoleSize=0mil|Usage=FLASHONLY|Rotation=0.000|XOffset=0mil|YOffset=0mil|HoleType=Round|Shape=RoundedRectangle|*
%AMROUNDEDRECTD14*
21,1,0.61024,0.00000,0,0,0.0*
21,1,0.55905,0.05118,0,0,0.0*
1,1,0.05118,0.27953,0.00000*
1,1,0.05118,-0.27953,0.00000*
1,1,0.05118,-0.27953,0.00000*
1,1,0.05118,0.27953,0.00000*
%
%ADD14ROUNDEDRECTD14*%
%ADD15R,0.64961X0.02756*%
%ADD16C,0.02000*%
D13*
X150000Y12500D02*
D03*
Y22500D02*
D03*
Y32500D02*
D03*
Y42500D02*
D03*
Y52500D02*
D03*
Y62500D02*
D03*
Y72500D02*
D03*
Y82500D02*
D03*
X5000Y12500D02*
D03*
Y22500D02*
D03*
Y32500D02*
D03*
X5004Y42500D02*
D03*
X5000Y52500D02*
D03*
X5004Y62500D02*
D03*
X5000Y72500D02*
D03*
Y82500D02*
D03*
D14*
X42000Y77500D02*
D03*
Y87500D02*
D03*
Y67500D02*
D03*
Y57500D02*
D03*
Y47500D02*
D03*
Y37500D02*
D03*
Y27500D02*
D03*
Y17500D02*
D03*
Y7500D02*
D03*
X113000D02*
D03*
Y17500D02*
D03*
Y27500D02*
D03*
Y37500D02*
D03*
Y47500D02*
D03*
Y57500D02*
D03*
Y67500D02*
D03*
Y87500D02*
D03*
Y77500D02*
D03*
D15*
X42000Y82500D02*
D03*
Y72500D02*
D03*
Y62500D02*
D03*
Y52500D02*
D03*
Y42500D02*
D03*
Y32500D02*
D03*
Y22500D02*
D03*
Y12500D02*
D03*
X113000D02*
D03*
Y22500D02*
D03*
Y32500D02*
D03*
Y42500D02*
D03*
Y52500D02*
D03*
Y62500D02*
D03*
Y72500D02*
D03*
Y82500D02*
D03*
D16*
X110000D02*
X150000D01*
X110000Y72500D02*
X150000D01*
X110000Y62500D02*
X150000D01*
X110000Y52500D02*
X150000D01*
X110000Y42500D02*
X150000D01*
X110000Y32500D02*
X150000D01*
X110000Y22500D02*
X150000D01*
X110000Y12500D02*
X150000D01*
X5000D02*
X45000D01*
X5000Y22500D02*
X45000D01*
X5000Y32500D02*
X45000D01*
X5004Y42500D02*
X45004D01*
X5000Y52500D02*
X45000D01*
X5004Y62500D02*
X45004D01*
X5000Y72500D02*
X45000D01*
X5000Y82500D02*
X45000D01*
M02*
