G04*
G04 #@! TF.GenerationSoftware,Altium Limited,Altium Designer,19.0.14 (431)*
G04*
G04 Layer_Color=8388736*
%FSLAX25Y25*%
%MOIN*%
G70*
G01*
G75*
%ADD11C,0.07906*%
G04:AMPARAMS|DCode=12|XSize=630.24mil|YSize=67.24mil|CornerRadius=33.62mil|HoleSize=0mil|Usage=FLASHONLY|Rotation=0.000|XOffset=0mil|YOffset=0mil|HoleType=Round|Shape=RoundedRectangle|*
%AMROUNDEDRECTD12*
21,1,0.63024,0.00000,0,0,0.0*
21,1,0.56299,0.06724,0,0,0.0*
1,1,0.06724,0.28150,0.00000*
1,1,0.06724,-0.28150,0.00000*
1,1,0.06724,-0.28150,0.00000*
1,1,0.06724,0.28150,0.00000*
%
%ADD12ROUNDEDRECTD12*%
D11*
X150000Y12500D02*
D03*
Y22500D02*
D03*
Y32500D02*
D03*
Y42500D02*
D03*
Y52500D02*
D03*
Y62500D02*
D03*
Y72500D02*
D03*
Y82500D02*
D03*
X5000Y12500D02*
D03*
Y22500D02*
D03*
Y32500D02*
D03*
X5004Y42500D02*
D03*
X5000Y52500D02*
D03*
X5004Y62500D02*
D03*
X5000Y72500D02*
D03*
Y82500D02*
D03*
D12*
X42000Y77500D02*
D03*
Y87500D02*
D03*
Y67500D02*
D03*
Y57500D02*
D03*
Y47500D02*
D03*
Y37500D02*
D03*
Y27500D02*
D03*
Y17500D02*
D03*
Y7500D02*
D03*
X113000D02*
D03*
Y17500D02*
D03*
Y27500D02*
D03*
Y37500D02*
D03*
Y47500D02*
D03*
Y57500D02*
D03*
Y67500D02*
D03*
Y87500D02*
D03*
Y77500D02*
D03*
M02*
