G04*
G04 #@! TF.GenerationSoftware,Altium Limited,Altium Designer,19.0.12 (326)*
G04*
G04 Layer_Physical_Order=3*
G04 Layer_Color=16440176*
%FSLAX44Y44*%
%MOMM*%
G71*
G01*
G75*
%ADD40C,0.4000*%
%ADD42C,1.6000*%
%ADD44C,2.0000*%
%ADD49C,1.5000*%
%ADD51C,0.6000*%
D40*
X943610Y837692D02*
Y899414D01*
X934720Y828802D02*
X943610Y837692D01*
X356362Y168910D02*
Y191008D01*
X307340Y119888D02*
X356362Y168910D01*
X212598Y68580D02*
X520192D01*
X135890Y283972D02*
X163972Y312054D01*
X543560Y683260D02*
X596900D01*
X607060Y693420D01*
Y812800D01*
X635000Y840740D01*
X647700D01*
X788800Y642112D02*
Y652600D01*
X781942Y635254D02*
X788800Y642112D01*
X613490Y635254D02*
X781942D01*
X604520Y644224D02*
X613490Y635254D01*
X604520Y644224D02*
Y650748D01*
X218948Y119888D02*
X307340D01*
X450088Y268224D02*
Y429768D01*
X463799Y443479D01*
X477600D01*
X197866Y363441D02*
X199550Y365125D01*
X197866Y326898D02*
Y363441D01*
X160782Y289814D02*
X197866Y326898D01*
X160782Y227584D02*
Y289814D01*
X135890Y227076D02*
Y283972D01*
X112135Y404997D02*
X129032D01*
X136144Y397885D01*
Y390906D02*
Y397885D01*
X112014Y404876D02*
X112135Y404997D01*
X136144Y328422D02*
Y390906D01*
X136525Y390525D01*
X148750D01*
X284480Y787366D02*
Y813054D01*
X284229Y787115D02*
X284480Y787366D01*
X258318Y839216D02*
X284480Y813054D01*
X182626Y839216D02*
X258318D01*
X176255Y832845D02*
X182626Y839216D01*
X176255Y827605D02*
Y832845D01*
X174150Y825500D02*
X176255Y827605D01*
X282448Y465836D02*
Y742950D01*
X276098Y749300D02*
X282448Y742950D01*
X250350Y749300D02*
X276098D01*
X203454Y135382D02*
X218948Y119888D01*
X520192Y68580D02*
X548894Y97282D01*
X211050Y360362D02*
Y430022D01*
X206614Y355926D02*
X211050Y360362D01*
X206614Y302155D02*
Y355926D01*
Y302155D02*
X213450Y295319D01*
Y195236D02*
Y295319D01*
Y195236D02*
X224536Y184150D01*
X224950D01*
Y441325D02*
X237744D01*
Y711106D01*
X224950Y723900D02*
X237744Y711106D01*
X187706Y498602D02*
Y531081D01*
X199550Y542925D01*
X187706Y498602D02*
X193040Y493268D01*
X237744Y171544D02*
Y441325D01*
X224950Y158750D02*
X237744Y171544D01*
X224950Y749300D02*
X237396Y761746D01*
X278638D01*
X289306Y751078D01*
Y197706D02*
Y751078D01*
X250350Y158750D02*
X289306Y197706D01*
X282448Y216248D02*
Y465836D01*
X251239D02*
X282448D01*
X250350Y466725D02*
X251239Y465836D01*
X250350Y184150D02*
X282448Y216248D01*
X354838Y513555D02*
Y514096D01*
X352044Y510761D02*
X354838Y513555D01*
X352044Y454660D02*
Y510761D01*
X203454Y135382D02*
Y208026D01*
X376174Y645922D02*
X379984Y642112D01*
X566166D01*
X196366Y390525D02*
X199550D01*
X133501Y453390D02*
X196366Y390525D01*
X84074Y453390D02*
X133501D01*
X109450Y496855D02*
X172218Y434086D01*
X103450Y502888D02*
Y509048D01*
X97950Y514548D02*
X103450Y509048D01*
Y502888D02*
X109450Y496888D01*
X97950Y514548D02*
Y517525D01*
X109450Y496855D02*
Y496888D01*
X172218Y434086D02*
X173228D01*
X477600Y443479D02*
X479473Y441606D01*
X97950Y542925D02*
X109450Y531425D01*
Y509294D02*
Y531425D01*
X129864Y221050D02*
X135890Y227076D01*
X86938Y221050D02*
X129864D01*
X75438Y209550D02*
X86938Y221050D01*
X72550Y209550D02*
X75438D01*
X97950D02*
X142748D01*
X160782Y227584D01*
X160528Y455676D02*
Y458216D01*
X109450Y509294D02*
X160528Y458216D01*
X72550Y464914D02*
X84074Y453390D01*
X72550Y464914D02*
Y466725D01*
X795020Y828802D02*
X934720D01*
X788800Y822582D02*
X795020Y828802D01*
X788800Y805000D02*
Y822582D01*
X173482Y338321D02*
Y364457D01*
X111350Y276189D02*
X173482Y338321D01*
X111350Y248350D02*
Y276189D01*
X53306Y394428D02*
Y463296D01*
X42672Y383794D02*
X53306Y394428D01*
X42672Y170434D02*
Y383794D01*
X55880Y762254D02*
X84836D01*
X38862Y745236D02*
X55880Y762254D01*
X38862Y484124D02*
Y745236D01*
X31750Y751840D02*
X54610Y774700D01*
X72550D01*
X31750Y493268D02*
Y751840D01*
X474353Y291079D02*
X477600D01*
X475304Y390383D02*
X477600Y392679D01*
X475304Y369575D02*
X477600Y367279D01*
X15868Y210178D02*
Y418846D01*
X31750Y434728D02*
Y493268D01*
X15868Y418846D02*
X31750Y434728D01*
X38862Y420721D02*
Y484124D01*
X23368Y405227D02*
X38862Y420721D01*
X45974Y416306D02*
Y473456D01*
X46306Y473788D02*
Y738710D01*
X45974Y473456D02*
X46306Y473788D01*
X31496Y401828D02*
X45974Y416306D01*
X53306Y463296D02*
Y726152D01*
X60148Y171152D02*
Y441325D01*
X23368Y195072D02*
Y405227D01*
X60148Y171152D02*
X72550Y158750D01*
X53306Y726152D02*
X63054Y735900D01*
X60148Y441325D02*
Y460239D01*
X60306Y460396D01*
Y711656D01*
X72550Y723900D01*
X31496Y184404D02*
Y401828D01*
X46306Y738710D02*
X56896Y749300D01*
X60148Y441325D02*
X72550D01*
X88826Y747387D02*
X96037D01*
X77339Y735900D02*
X88826Y747387D01*
X96037D02*
X97950Y749300D01*
X63054Y735900D02*
X77339D01*
X56896Y749300D02*
X72550D01*
X84836Y762254D02*
X97282Y774700D01*
X97950D01*
X15240Y209550D02*
X15868Y210178D01*
X477600Y265679D02*
Y266079D01*
X148082Y325882D02*
Y364457D01*
X97950Y275750D02*
X148082Y325882D01*
X97950Y260350D02*
Y275750D01*
X72550Y264828D02*
X136144Y328422D01*
X72550Y234950D02*
Y264828D01*
X148082Y364457D02*
X148750Y365125D01*
X173482Y364457D02*
X174150Y365125D01*
X97950Y234950D02*
X111350Y248350D01*
X664290Y112712D02*
X664464Y112886D01*
X548894Y97282D02*
Y111268D01*
X547450Y112712D02*
X548894Y111268D01*
D42*
X477600Y443479D02*
D03*
Y392679D02*
D03*
Y367279D02*
D03*
Y291079D02*
D03*
Y265679D02*
D03*
D44*
X788800Y652600D02*
D03*
Y805000D02*
D03*
D49*
X664290Y112712D02*
D03*
X547450D02*
D03*
X174150Y825500D02*
D03*
X97950Y774700D02*
D03*
X72550D02*
D03*
X250350Y749300D02*
D03*
X224950D02*
D03*
X97950D02*
D03*
X72550D02*
D03*
X224950Y723900D02*
D03*
X72550D02*
D03*
X97950Y260350D02*
D03*
Y234950D02*
D03*
X72550D02*
D03*
X97950Y209550D02*
D03*
X72550D02*
D03*
X250350Y184150D02*
D03*
X224950D02*
D03*
X250350Y158750D02*
D03*
X224950D02*
D03*
X72550D02*
D03*
X199550Y542925D02*
D03*
X97950D02*
D03*
Y517525D02*
D03*
X250350Y466725D02*
D03*
X72550D02*
D03*
X224950Y441325D02*
D03*
X72550D02*
D03*
X199550Y390525D02*
D03*
X148750D02*
D03*
X199550Y365125D02*
D03*
X174150D02*
D03*
X148750D02*
D03*
D51*
X943610Y899414D02*
D03*
X212598Y68580D02*
D03*
X356362Y191008D02*
D03*
X163972Y312054D02*
D03*
X543560Y683260D02*
D03*
X647700Y840740D02*
D03*
X604520Y650748D02*
D03*
X450088Y268224D02*
D03*
X210820Y430022D02*
D03*
X193040Y493268D02*
D03*
X352044Y454660D02*
D03*
X112014Y404876D02*
D03*
X284229Y787115D02*
D03*
X203454Y208026D02*
D03*
X376174Y645922D02*
D03*
X354838Y514096D02*
D03*
X160528Y455676D02*
D03*
X173228Y434086D02*
D03*
X566166Y642112D02*
D03*
X31750Y493268D02*
D03*
X38862Y484124D02*
D03*
X46306Y473788D02*
D03*
X53306Y463296D02*
D03*
X15240Y209550D02*
D03*
X23368Y195072D02*
D03*
X31496Y184404D02*
D03*
X42672Y170434D02*
D03*
M02*
