G04*
G04 #@! TF.GenerationSoftware,Altium Limited,Altium Designer,19.0.12 (326)*
G04*
G04 Layer_Color=8388736*
%FSLAX44Y44*%
%MOMM*%
G71*
G01*
G75*
%ADD22R,1.5000X1.1000*%
%ADD23R,7.3000X5.7000*%
%ADD24R,2.8000X1.1500*%
%ADD25R,1.1000X1.5000*%
%ADD26R,8.2000X7.2000*%
%ADD27R,1.8000X3.7000*%
%ADD28R,1.3400X0.7400*%
%ADD29R,1.4000X0.7000*%
%ADD30R,0.7400X1.3400*%
%ADD31C,1.8000*%
G04:AMPARAMS|DCode=32|XSize=14.2mm|YSize=1.4mm|CornerRadius=0.7mm|HoleSize=0mm|Usage=FLASHONLY|Rotation=0.000|XOffset=0mm|YOffset=0mm|HoleType=Round|Shape=RoundedRectangle|*
%AMROUNDEDRECTD32*
21,1,14.2000,0.0000,0,0,0.0*
21,1,12.8000,1.4000,0,0,0.0*
1,1,1.4000,6.4000,0.0000*
1,1,1.4000,-6.4000,0.0000*
1,1,1.4000,-6.4000,0.0000*
1,1,1.4000,6.4000,0.0000*
%
%ADD32ROUNDEDRECTD32*%
%ADD33C,2.2000*%
%ADD34C,3.8000*%
%ADD35R,1.5000X3.4000*%
%ADD36R,3.4000X1.5000*%
%ADD37R,3.9000X1.5000*%
%ADD38C,1.7000*%
%ADD39C,3.4000*%
D22*
X295000Y694500D02*
D03*
Y675500D02*
D03*
Y635500D02*
D03*
Y654500D02*
D03*
X435000Y923500D02*
D03*
Y904500D02*
D03*
X570000Y804500D02*
D03*
Y785500D02*
D03*
X295000Y350500D02*
D03*
Y369500D02*
D03*
X294894Y152654D02*
D03*
Y133654D02*
D03*
Y93654D02*
D03*
Y112654D02*
D03*
X930910Y876250D02*
D03*
Y857250D02*
D03*
X295000Y390500D02*
D03*
Y409500D02*
D03*
D23*
X391382Y797560D02*
D03*
D24*
X330882Y774760D02*
D03*
Y820360D02*
D03*
D25*
X348640Y751840D02*
D03*
X367640D02*
D03*
X321360Y843280D02*
D03*
X340360D02*
D03*
D26*
X500000Y811000D02*
D03*
D27*
X475000Y914000D02*
D03*
X525000D02*
D03*
D28*
X575000Y927750D02*
D03*
Y912250D02*
D03*
X600000Y927750D02*
D03*
Y912250D02*
D03*
X930910Y898900D02*
D03*
Y914400D02*
D03*
X845900Y924500D02*
D03*
Y940000D02*
D03*
Y882650D02*
D03*
Y867150D02*
D03*
D29*
X600000Y889500D02*
D03*
Y870500D02*
D03*
X575000Y889500D02*
D03*
Y870500D02*
D03*
D30*
X839600Y615950D02*
D03*
X855100D02*
D03*
X882650D02*
D03*
X898150D02*
D03*
D31*
X477600Y443479D02*
D03*
Y418079D02*
D03*
Y392679D02*
D03*
Y367279D02*
D03*
Y341879D02*
D03*
Y316479D02*
D03*
Y291079D02*
D03*
Y265679D02*
D03*
X845900D02*
D03*
Y291079D02*
D03*
Y316479D02*
D03*
Y341879D02*
D03*
Y367279D02*
D03*
Y392679D02*
D03*
Y418079D02*
D03*
Y443479D02*
D03*
X900400Y869200D02*
D03*
Y894600D02*
D03*
Y920000D02*
D03*
Y945400D02*
D03*
X875000D02*
D03*
Y920000D02*
D03*
Y894600D02*
D03*
Y869200D02*
D03*
X123350Y909800D02*
D03*
D32*
X753190Y430779D02*
D03*
Y456179D02*
D03*
Y405379D02*
D03*
Y379979D02*
D03*
Y354579D02*
D03*
Y329179D02*
D03*
Y303779D02*
D03*
Y278379D02*
D03*
Y252979D02*
D03*
X572850D02*
D03*
Y278379D02*
D03*
Y303779D02*
D03*
Y329179D02*
D03*
Y354579D02*
D03*
Y379979D02*
D03*
Y405379D02*
D03*
Y456179D02*
D03*
Y430779D02*
D03*
D33*
X839600Y678000D02*
D03*
X865000D02*
D03*
X890400D02*
D03*
X941200D02*
D03*
X966600Y652600D02*
D03*
X941200D02*
D03*
X915800D02*
D03*
X890400D02*
D03*
X865000D02*
D03*
X839600D02*
D03*
X814200D02*
D03*
X788800D02*
D03*
X763400D02*
D03*
X738000D02*
D03*
X712600D02*
D03*
X687200D02*
D03*
X661800D02*
D03*
X636400D02*
D03*
Y678000D02*
D03*
Y703400D02*
D03*
Y728800D02*
D03*
Y754200D02*
D03*
Y779600D02*
D03*
Y805000D02*
D03*
X661800D02*
D03*
X687200D02*
D03*
X712600D02*
D03*
X738000D02*
D03*
X763400D02*
D03*
X788800D02*
D03*
X814200D02*
D03*
X839600D02*
D03*
X865000D02*
D03*
X890400D02*
D03*
X915800D02*
D03*
X941200D02*
D03*
X966600D02*
D03*
D34*
X350000Y880000D02*
D03*
X416000Y975300D02*
D03*
X284000D02*
D03*
X397000Y880000D02*
D03*
X303000D02*
D03*
D35*
X153000Y910000D02*
D03*
D36*
X200000Y940000D02*
D03*
D37*
Y880000D02*
D03*
D38*
X547450Y595312D02*
D03*
X572850D02*
D03*
X598250D02*
D03*
X623650D02*
D03*
X649050D02*
D03*
X674450D02*
D03*
X699850D02*
D03*
X725250D02*
D03*
X588090Y112712D02*
D03*
X613490D02*
D03*
X664290D02*
D03*
X689690D02*
D03*
X715090D02*
D03*
X740490D02*
D03*
X765890D02*
D03*
X791290D02*
D03*
X816690D02*
D03*
X638890D02*
D03*
X547450D02*
D03*
X522050D02*
D03*
X496650D02*
D03*
X471250D02*
D03*
X445850D02*
D03*
X420450D02*
D03*
X395050D02*
D03*
X369650D02*
D03*
Y595312D02*
D03*
X395050D02*
D03*
X420450D02*
D03*
X445850D02*
D03*
X471250D02*
D03*
X496650D02*
D03*
X224950Y825500D02*
D03*
X199550D02*
D03*
X174150D02*
D03*
X148750D02*
D03*
X123350D02*
D03*
X97950D02*
D03*
X250350Y800100D02*
D03*
X224950D02*
D03*
X199550D02*
D03*
X174150D02*
D03*
X148750D02*
D03*
X123350D02*
D03*
X97950D02*
D03*
X72550D02*
D03*
X250350Y774700D02*
D03*
X224950D02*
D03*
X97950D02*
D03*
X72550D02*
D03*
X250350Y749300D02*
D03*
X224950D02*
D03*
X97950D02*
D03*
X72550D02*
D03*
X250350Y723900D02*
D03*
X224950D02*
D03*
X97950D02*
D03*
X72550D02*
D03*
X250350Y698500D02*
D03*
X224950D02*
D03*
X97950D02*
D03*
X72550D02*
D03*
X250350Y673100D02*
D03*
X224950D02*
D03*
X199550D02*
D03*
X174150D02*
D03*
X148750D02*
D03*
X123350D02*
D03*
X97950D02*
D03*
X72550D02*
D03*
X224950Y647700D02*
D03*
X199550D02*
D03*
X174150D02*
D03*
X148750D02*
D03*
X123350D02*
D03*
X97950D02*
D03*
X224950Y260350D02*
D03*
X199550D02*
D03*
X174150D02*
D03*
X148750D02*
D03*
X123350D02*
D03*
X97950D02*
D03*
X250350Y234950D02*
D03*
X224950D02*
D03*
X199550D02*
D03*
X174150D02*
D03*
X148750D02*
D03*
X123350D02*
D03*
X97950D02*
D03*
X72550D02*
D03*
X250350Y209550D02*
D03*
X224950D02*
D03*
X97950D02*
D03*
X72550D02*
D03*
X250350Y184150D02*
D03*
X224950D02*
D03*
X97950D02*
D03*
X72550D02*
D03*
X250350Y158750D02*
D03*
X224950D02*
D03*
X97950D02*
D03*
X72550D02*
D03*
X250350Y133350D02*
D03*
X224950D02*
D03*
X97950D02*
D03*
X72550D02*
D03*
X250350Y107950D02*
D03*
X224950D02*
D03*
X199550D02*
D03*
X174150D02*
D03*
X148750D02*
D03*
X123350D02*
D03*
X97950D02*
D03*
X72550D02*
D03*
X224950Y82550D02*
D03*
X199550D02*
D03*
X174150D02*
D03*
X148750D02*
D03*
X123350D02*
D03*
X97950D02*
D03*
X224950Y542925D02*
D03*
X199550D02*
D03*
X174150D02*
D03*
X148750D02*
D03*
X123350D02*
D03*
X97950D02*
D03*
X250350Y517525D02*
D03*
X224950D02*
D03*
X199550D02*
D03*
X174150D02*
D03*
X148750D02*
D03*
X123350D02*
D03*
X97950D02*
D03*
X72550D02*
D03*
X250350Y492125D02*
D03*
X224950D02*
D03*
X97950D02*
D03*
X72550D02*
D03*
X250350Y466725D02*
D03*
X224950D02*
D03*
X97950D02*
D03*
X72550D02*
D03*
X250350Y441325D02*
D03*
X224950D02*
D03*
X97950D02*
D03*
X72550D02*
D03*
X250350Y415925D02*
D03*
X224950D02*
D03*
X97950D02*
D03*
X72550D02*
D03*
X250350Y390525D02*
D03*
X224950D02*
D03*
X199550D02*
D03*
X174150D02*
D03*
X148750D02*
D03*
X123350D02*
D03*
X97950D02*
D03*
X72550D02*
D03*
X224950Y365125D02*
D03*
X199550D02*
D03*
X174150D02*
D03*
X148750D02*
D03*
X123350D02*
D03*
X97950D02*
D03*
D39*
X965000Y960000D02*
D03*
Y40000D02*
D03*
X40000Y960000D02*
D03*
M02*
