G04*
G04 #@! TF.GenerationSoftware,Altium Limited,Altium Designer,19.0.12 (326)*
G04*
G04 Layer_Color=65535*
%FSLAX44Y44*%
%MOMM*%
G71*
G01*
G75*
%ADD10C,0.1000*%
%ADD11C,0.2000*%
%ADD12C,0.2540*%
D10*
X1002000Y960000D02*
G03*
X1002000Y960000I-37000J0D01*
G01*
Y40000D02*
G03*
X1002000Y40000I-37000J0D01*
G01*
X77000Y960000D02*
G03*
X77000Y960000I-37000J0D01*
G01*
D11*
X490300Y240279D02*
Y456179D01*
X502746Y468625D01*
X604854D01*
X490300Y456179D02*
X490554D01*
X718646Y468625D02*
X833200D01*
X490300Y240279D02*
X833200D01*
X833200Y468625D02*
X833200Y240279D01*
X604854Y468625D02*
X718646D01*
X284840Y667220D02*
X305160D01*
X284840D02*
Y702780D01*
X305160D01*
Y667220D02*
Y702780D01*
X284840Y662780D02*
X305160D01*
Y627220D02*
Y662780D01*
X284840Y627220D02*
X305160D01*
X284840D02*
Y662780D01*
X349882Y765060D02*
X432382D01*
Y830060D01*
X349882D02*
X432382D01*
X349882Y765060D02*
Y830060D01*
X375920Y741680D02*
Y762000D01*
X340360Y741680D02*
X375920D01*
X340360D02*
Y762000D01*
X375920D01*
X348640Y833120D02*
Y853440D01*
X313080Y833120D02*
X348640D01*
X313080D02*
Y853440D01*
X348640D01*
X451740Y771580D02*
Y853260D01*
Y771580D02*
X548260D01*
X451740Y879530D02*
X548260D01*
X451740Y853260D02*
Y879530D01*
X548260Y771580D02*
Y879530D01*
X424840Y896220D02*
X445160D01*
X424840D02*
Y931780D01*
X445160D01*
Y896220D02*
Y931780D01*
X915640Y833640D02*
Y980960D01*
X666720D02*
X915640D01*
X666720Y833640D02*
Y980960D01*
Y833640D02*
X915640D01*
X564840Y902220D02*
X585160D01*
X564840D02*
Y937780D01*
X585160D01*
Y902220D02*
Y937780D01*
X589840Y902220D02*
X610160D01*
X589840D02*
Y937780D01*
X610160D01*
Y902220D02*
Y937780D01*
X559840Y777220D02*
X580160D01*
X559840D02*
Y812780D01*
X580160D01*
Y777220D02*
Y812780D01*
X591364Y897272D02*
X608382D01*
X591364Y864506D02*
X608382D01*
X591364D02*
Y897272D01*
X608382Y864506D02*
Y897272D01*
X594158Y894732D02*
X606096D01*
X566364Y897272D02*
X583382D01*
X566364Y864506D02*
X583382D01*
X566364D02*
Y897272D01*
X583382Y864506D02*
Y897272D01*
X569158Y894732D02*
X581096D01*
X284840Y377780D02*
X305160D01*
Y342220D02*
Y377780D01*
X284840Y342220D02*
X305160D01*
X284840D02*
Y377780D01*
X284734Y125374D02*
X305054D01*
X284734D02*
Y160934D01*
X305054D01*
Y125374D02*
Y160934D01*
X284734Y120934D02*
X305054D01*
Y85374D02*
Y120934D01*
X284734Y85374D02*
X305054D01*
X284734D02*
Y120934D01*
X920750Y924430D02*
X941070D01*
Y888870D02*
Y924430D01*
X920750Y888870D02*
X941070D01*
X920750D02*
Y924430D01*
Y848970D02*
X941070D01*
X920750D02*
Y884530D01*
X941070D01*
Y848970D02*
Y884530D01*
X835740Y950030D02*
X856060D01*
Y914470D02*
Y950030D01*
X835740Y914470D02*
X856060D01*
X835740D02*
Y950030D01*
Y857120D02*
X856060D01*
X835740D02*
Y892680D01*
X856060D01*
Y857120D02*
Y892680D01*
X865130Y605790D02*
Y626110D01*
X829570Y605790D02*
X865130D01*
X829570D02*
Y626110D01*
X865130D01*
X908180Y605790D02*
Y626110D01*
X872620Y605790D02*
X908180D01*
X872620D02*
Y626110D01*
X908180D01*
X621160Y818970D02*
X981840Y818970D01*
X621160Y637360D02*
Y818970D01*
Y637360D02*
X981840Y637360D01*
Y818970D01*
X983110Y774520D02*
X997080D01*
Y678000D02*
Y774520D01*
X983110Y678000D02*
X997080D01*
X1002160Y672920D02*
Y782920D01*
X1012320D01*
X1002160Y672920D02*
X1012320D01*
Y769440D02*
X1028830D01*
X1012320D02*
X1014860D01*
X1012320D02*
X1014860Y771980D01*
X1012320Y769440D02*
X1014860Y766900D01*
X1012320Y688160D02*
X1014860Y685620D01*
X1012320Y688160D02*
X1014860Y690700D01*
X1012320Y688160D02*
X1014860D01*
X1012320D02*
X1028830D01*
X1012320Y749120D02*
X1014860Y746580D01*
X1012320Y749120D02*
X1014860Y751660D01*
X1012320Y749120D02*
X1014860D01*
X1012320D02*
X1028830D01*
X1012320Y728800D02*
X1014860Y726260D01*
X1012320Y728800D02*
X1014860Y731340D01*
X1012320Y728800D02*
X1014860D01*
X1012320D02*
X1028830D01*
X1012320Y708480D02*
X1014860Y705940D01*
X1012320Y708480D02*
X1014860Y711020D01*
X1012320Y708480D02*
X1014860D01*
X1012320D02*
X1028830D01*
X282680Y1001920D02*
Y1034940D01*
X417300D01*
X282680Y895240D02*
Y951120D01*
X417300Y895240D02*
Y951120D01*
Y1001920D02*
Y1034940D01*
X222000Y874000D02*
X245000D01*
Y1018000D01*
X151000D02*
X245000D01*
X151000Y929000D02*
Y1018000D01*
Y874000D02*
Y890000D01*
Y874000D02*
X177000D01*
X305160Y382220D02*
Y417780D01*
X284840D02*
X305160D01*
X284840Y382220D02*
Y417780D01*
Y382220D02*
X305160D01*
X534750Y582612D02*
X737950D01*
Y608012D01*
X534750D02*
X737950D01*
X534750Y582612D02*
Y608012D01*
X829390Y100012D02*
Y125412D01*
X575390Y100012D02*
X829390D01*
X575390D02*
Y125412D01*
X594440D01*
X829390D01*
X356950D02*
X560150D01*
X356950Y100012D02*
Y125412D01*
Y100012D02*
X560150D01*
Y125412D01*
X356950Y608012D02*
X509350D01*
X356950Y582612D02*
X509350D01*
Y608012D01*
X356950Y582612D02*
Y608012D01*
X259748Y854202D02*
X278798Y835152D01*
Y618998D02*
Y835152D01*
X43848Y618998D02*
X278798D01*
X43848D02*
Y854202D01*
X259748D01*
Y289052D02*
X278798Y270002D01*
Y53848D02*
Y270002D01*
X43848Y53848D02*
X278798D01*
X43848D02*
Y289052D01*
X259748D01*
Y571627D02*
X278798Y552577D01*
Y336423D02*
Y552577D01*
X43848Y336423D02*
X278798D01*
X43848D02*
Y571627D01*
X259748D01*
X858600Y440809D02*
X860266Y439143D01*
X863598D01*
X865265Y440809D01*
Y447473D01*
X863598Y449140D01*
X860266D01*
X858600Y447473D01*
Y445807D01*
X860266Y444141D01*
X865265D01*
X858600Y413725D02*
X861932D01*
X860266D01*
Y423721D01*
X858600Y422055D01*
X866931D02*
X868597Y423721D01*
X871929D01*
X873595Y422055D01*
Y415391D01*
X871929Y413725D01*
X868597D01*
X866931Y415391D01*
Y422055D01*
X858600Y388307D02*
X861932D01*
X860266D01*
Y398303D01*
X858600Y396637D01*
X866931Y388307D02*
X870263D01*
X868597D01*
Y398303D01*
X866931Y396637D01*
X858600Y362888D02*
X861932D01*
X860266D01*
Y372885D01*
X858600Y371219D01*
X873595Y362888D02*
X866931D01*
X873595Y369553D01*
Y371219D01*
X871929Y372885D01*
X868597D01*
X866931Y371219D01*
X858600Y337470D02*
X861932D01*
X860266D01*
Y347467D01*
X858600Y345801D01*
X866931D02*
X868597Y347467D01*
X871929D01*
X873595Y345801D01*
Y344135D01*
X871929Y342469D01*
X870263D01*
X871929D01*
X873595Y340802D01*
Y339136D01*
X871929Y337470D01*
X868597D01*
X866931Y339136D01*
X858600Y261216D02*
X861932D01*
X860266D01*
Y271213D01*
X858600Y269547D01*
X873595Y271213D02*
X870263Y269547D01*
X866931Y266214D01*
Y262882D01*
X868597Y261216D01*
X871929D01*
X873595Y262882D01*
Y264548D01*
X871929Y266214D01*
X866931D01*
X858600Y286634D02*
X861932D01*
X860266D01*
Y296631D01*
X858600Y294965D01*
X873595Y296631D02*
X866931D01*
Y291632D01*
X870263Y293298D01*
X871929D01*
X873595Y291632D01*
Y288300D01*
X871929Y286634D01*
X868597D01*
X866931Y288300D01*
X858600Y312052D02*
X861932D01*
X860266D01*
Y322049D01*
X858600Y320383D01*
X871929Y312052D02*
Y322049D01*
X866931Y317050D01*
X873595D01*
X457991Y296649D02*
X464655D01*
Y294983D01*
X457991Y288318D01*
Y286652D01*
Y269565D02*
X459657Y271231D01*
X462989D01*
X464655Y269565D01*
Y267898D01*
X462989Y266232D01*
X464655Y264566D01*
Y262900D01*
X462989Y261234D01*
X459657D01*
X457991Y262900D01*
Y264566D01*
X459657Y266232D01*
X457991Y267898D01*
Y269565D01*
X459657Y266232D02*
X462989D01*
X464655Y322067D02*
X461323Y320401D01*
X457991Y317069D01*
Y313736D01*
X459657Y312070D01*
X462989D01*
X464655Y313736D01*
Y315403D01*
X462989Y317069D01*
X457991D01*
X464655Y347485D02*
X457991D01*
Y342487D01*
X461323Y344153D01*
X462989D01*
X464655Y342487D01*
Y339155D01*
X462989Y337488D01*
X459657D01*
X457991Y339155D01*
X462989Y362906D02*
Y372903D01*
X457991Y367905D01*
X464655D01*
X457991Y396655D02*
X459657Y398321D01*
X462989D01*
X464655Y396655D01*
Y394989D01*
X462989Y393323D01*
X461323D01*
X462989D01*
X464655Y391657D01*
Y389991D01*
X462989Y388325D01*
X459657D01*
X457991Y389991D01*
X464655Y413743D02*
X457991D01*
X464655Y420407D01*
Y422073D01*
X462989Y423740D01*
X459657D01*
X457991Y422073D01*
X461323Y439161D02*
X464655D01*
X462989D01*
Y449158D01*
X461323Y447491D01*
D12*
X45372Y878581D02*
Y865885D01*
X47911Y863346D01*
X52990D01*
X55529Y865885D01*
Y878581D01*
X60607D02*
X70764D01*
Y876042D01*
X60607Y865885D01*
Y863346D01*
X45372Y313431D02*
Y300735D01*
X47911Y298196D01*
X52990D01*
X55529Y300735D01*
Y313431D01*
X70764D02*
X65685Y310892D01*
X60607Y305814D01*
Y300735D01*
X63146Y298196D01*
X68225D01*
X70764Y300735D01*
Y303274D01*
X68225Y305814D01*
X60607D01*
X45372Y595879D02*
Y583183D01*
X47911Y580644D01*
X52990D01*
X55529Y583183D01*
Y595879D01*
X70764D02*
X60607D01*
Y588261D01*
X65685Y590801D01*
X68225D01*
X70764Y588261D01*
Y583183D01*
X68225Y580644D01*
X63146D01*
X60607Y583183D01*
X408940Y759455D02*
Y746759D01*
X411479Y744220D01*
X416558D01*
X419097Y746759D01*
Y759455D01*
X424175Y756916D02*
X426714Y759455D01*
X431793D01*
X434332Y756916D01*
Y754377D01*
X431793Y751837D01*
X429253D01*
X431793D01*
X434332Y749298D01*
Y746759D01*
X431793Y744220D01*
X426714D01*
X424175Y746759D01*
X525780Y760725D02*
Y748029D01*
X528319Y745490D01*
X533397D01*
X535937Y748029D01*
Y760725D01*
X551172Y745490D02*
X541015D01*
X551172Y755647D01*
Y758186D01*
X548633Y760725D01*
X543554D01*
X541015Y758186D01*
X963930Y632455D02*
Y619759D01*
X966469Y617220D01*
X971547D01*
X974087Y619759D01*
Y632455D01*
X979165Y617220D02*
X984243D01*
X981704D01*
Y632455D01*
X979165Y629916D01*
X614680Y920750D02*
Y935985D01*
X622298D01*
X624837Y933446D01*
Y928367D01*
X622298Y925828D01*
X614680D01*
X619758D02*
X624837Y920750D01*
X629915Y935985D02*
X640072D01*
Y933446D01*
X629915Y923289D01*
Y920750D01*
X947420Y892680D02*
Y907915D01*
X955038D01*
X957577Y905376D01*
Y900297D01*
X955038Y897758D01*
X947420D01*
X952498D02*
X957577Y892680D01*
X972812Y907915D02*
X967733Y905376D01*
X962655Y900297D01*
Y895219D01*
X965194Y892680D01*
X970273D01*
X972812Y895219D01*
Y897758D01*
X970273Y900297D01*
X962655D01*
X834390Y584200D02*
Y599435D01*
X842008D01*
X844547Y596896D01*
Y591818D01*
X842008Y589278D01*
X834390D01*
X839468D02*
X844547Y584200D01*
X859782Y599435D02*
X849625D01*
Y591818D01*
X854703Y594357D01*
X857243D01*
X859782Y591818D01*
Y586739D01*
X857243Y584200D01*
X852164D01*
X849625Y586739D01*
X880110Y584200D02*
Y599435D01*
X887728D01*
X890267Y596896D01*
Y591818D01*
X887728Y589278D01*
X880110D01*
X885188D02*
X890267Y584200D01*
X902963D02*
Y599435D01*
X895345Y591818D01*
X905502D01*
X561340Y912250D02*
X546105D01*
Y919867D01*
X548644Y922407D01*
X553722D01*
X556262Y919867D01*
Y912250D01*
Y917328D02*
X561340Y922407D01*
X548644Y927485D02*
X546105Y930024D01*
Y935103D01*
X548644Y937642D01*
X551183D01*
X553722Y935103D01*
Y932563D01*
Y935103D01*
X556262Y937642D01*
X558801D01*
X561340Y935103D01*
Y930024D01*
X558801Y927485D01*
X805180Y858520D02*
Y873755D01*
X812797D01*
X815337Y871216D01*
Y866137D01*
X812797Y863598D01*
X805180D01*
X810258D02*
X815337Y858520D01*
X830572D02*
X820415D01*
X830572Y868677D01*
Y871216D01*
X828033Y873755D01*
X822954D01*
X820415Y871216D01*
X810260Y916940D02*
Y932175D01*
X817878D01*
X820417Y929636D01*
Y924557D01*
X817878Y922018D01*
X810260D01*
X815338D02*
X820417Y916940D01*
X825495D02*
X830573D01*
X828034D01*
Y932175D01*
X825495Y929636D01*
X121920Y875030D02*
Y890265D01*
X129537D01*
X132077Y887726D01*
Y882647D01*
X129537Y880108D01*
X121920D01*
X137155Y875030D02*
X142233D01*
X139694D01*
Y890265D01*
X137155Y887726D01*
X594158Y859785D02*
Y844550D01*
X604315D01*
X619550D02*
X609393D01*
X619550Y854707D01*
Y857246D01*
X617011Y859785D01*
X611932D01*
X609393Y857246D01*
X567690Y859785D02*
Y844550D01*
X577847D01*
X582925D02*
X588003D01*
X585464D01*
Y859785D01*
X582925Y857246D01*
X119384Y935987D02*
X116845Y933447D01*
Y928369D01*
X119384Y925830D01*
X129541D01*
X132080Y928369D01*
Y933447D01*
X129541Y935987D01*
X124462D01*
Y930908D01*
X132080Y941065D02*
X116845D01*
X132080Y951222D01*
X116845D01*
Y956300D02*
X132080D01*
Y963918D01*
X129541Y966457D01*
X119384D01*
X116845Y963918D01*
Y956300D01*
X262895Y908047D02*
Y902968D01*
Y905508D01*
X275591D01*
X278130Y902968D01*
Y900429D01*
X275591Y897890D01*
X278130Y923282D02*
Y913125D01*
X267973Y923282D01*
X265434D01*
X262895Y920743D01*
Y915664D01*
X265434Y913125D01*
X322577Y642616D02*
X320037Y645155D01*
X314959D01*
X312420Y642616D01*
Y632459D01*
X314959Y629920D01*
X320037D01*
X322577Y632459D01*
X327655Y629920D02*
X332733D01*
X330194D01*
Y645155D01*
X327655Y642616D01*
X340351Y629920D02*
X345429D01*
X342890D01*
Y645155D01*
X340351Y642616D01*
X322577Y681986D02*
X320037Y684525D01*
X314959D01*
X312420Y681986D01*
Y671829D01*
X314959Y669290D01*
X320037D01*
X322577Y671829D01*
X327655Y669290D02*
X332733D01*
X330194D01*
Y684525D01*
X327655Y681986D01*
X340351D02*
X342890Y684525D01*
X347968D01*
X350508Y681986D01*
Y671829D01*
X347968Y669290D01*
X342890D01*
X340351Y671829D01*
Y681986D01*
X321307Y148586D02*
X318768Y151125D01*
X313689D01*
X311150Y148586D01*
Y138429D01*
X313689Y135890D01*
X318768D01*
X321307Y138429D01*
X326385D02*
X328924Y135890D01*
X334003D01*
X336542Y138429D01*
Y148586D01*
X334003Y151125D01*
X328924D01*
X326385Y148586D01*
Y146047D01*
X328924Y143507D01*
X336542D01*
X322577Y109216D02*
X320037Y111755D01*
X314959D01*
X312420Y109216D01*
Y99059D01*
X314959Y96520D01*
X320037D01*
X322577Y99059D01*
X327655Y109216D02*
X330194Y111755D01*
X335273D01*
X337812Y109216D01*
Y106677D01*
X335273Y104137D01*
X337812Y101598D01*
Y99059D01*
X335273Y96520D01*
X330194D01*
X327655Y99059D01*
Y101598D01*
X330194Y104137D01*
X327655Y106677D01*
Y109216D01*
X330194Y104137D02*
X335273D01*
X321307Y365756D02*
X318768Y368295D01*
X313689D01*
X311150Y365756D01*
Y355599D01*
X313689Y353060D01*
X318768D01*
X321307Y355599D01*
X326385Y368295D02*
X336542D01*
Y365756D01*
X326385Y355599D01*
Y353060D01*
X321307Y405375D02*
X318768Y407914D01*
X313689D01*
X311150Y405375D01*
Y395218D01*
X313689Y392679D01*
X318768D01*
X321307Y395218D01*
X336542Y407914D02*
X331463Y405375D01*
X326385Y400297D01*
Y395218D01*
X328924Y392679D01*
X334003D01*
X336542Y395218D01*
Y397757D01*
X334003Y400297D01*
X326385D01*
X957577Y863596D02*
X955038Y866135D01*
X949959D01*
X947420Y863596D01*
Y853439D01*
X949959Y850900D01*
X955038D01*
X957577Y853439D01*
X972812Y866135D02*
X962655D01*
Y858518D01*
X967733Y861057D01*
X970273D01*
X972812Y858518D01*
Y853439D01*
X970273Y850900D01*
X965194D01*
X962655Y853439D01*
X320037Y756916D02*
X317498Y759455D01*
X312419D01*
X309880Y756916D01*
Y746759D01*
X312419Y744220D01*
X317498D01*
X320037Y746759D01*
X332733Y744220D02*
Y759455D01*
X325115Y751837D01*
X335272D01*
X364995Y848356D02*
X362455Y850895D01*
X357377D01*
X354838Y848356D01*
Y838199D01*
X357377Y835660D01*
X362455D01*
X364995Y838199D01*
X370073Y848356D02*
X372612Y850895D01*
X377691D01*
X380230Y848356D01*
Y845817D01*
X377691Y843278D01*
X375151D01*
X377691D01*
X380230Y840738D01*
Y838199D01*
X377691Y835660D01*
X372612D01*
X370073Y838199D01*
X595317Y808986D02*
X592777Y811525D01*
X587699D01*
X585160Y808986D01*
Y798829D01*
X587699Y796290D01*
X592777D01*
X595317Y798829D01*
X610552Y796290D02*
X600395D01*
X610552Y806447D01*
Y808986D01*
X608013Y811525D01*
X602934D01*
X600395Y808986D01*
X434997Y949956D02*
X432458Y952495D01*
X427379D01*
X424840Y949956D01*
Y939799D01*
X427379Y937260D01*
X432458D01*
X434997Y939799D01*
X440075Y937260D02*
X445153D01*
X442614D01*
Y952495D01*
X440075Y949956D01*
M02*
