G04*
G04 #@! TF.GenerationSoftware,Altium Limited,Altium Designer,19.0.12 (326)*
G04*
G04 Layer_Physical_Order=4*
G04 Layer_Color=16711680*
%FSLAX44Y44*%
%MOMM*%
G71*
G01*
G75*
%ADD40C,0.4000*%
%ADD42C,1.6000*%
G04:AMPARAMS|DCode=43|XSize=14mm|YSize=1.2mm|CornerRadius=0.6mm|HoleSize=0mm|Usage=FLASHONLY|Rotation=0.000|XOffset=0mm|YOffset=0mm|HoleType=Round|Shape=RoundedRectangle|*
%AMROUNDEDRECTD43*
21,1,14.0000,0.0000,0,0,0.0*
21,1,12.8000,1.2000,0,0,0.0*
1,1,1.2000,6.4000,0.0000*
1,1,1.2000,-6.4000,0.0000*
1,1,1.2000,-6.4000,0.0000*
1,1,1.2000,6.4000,0.0000*
%
%ADD43ROUNDEDRECTD43*%
%ADD44C,2.0000*%
%ADD45C,3.6000*%
%ADD46R,1.3000X3.2000*%
%ADD47R,3.2000X1.3000*%
%ADD48R,3.7000X1.3000*%
%ADD49C,1.5000*%
%ADD50C,3.2000*%
%ADD51C,0.6000*%
%ADD59R,15.0000X0.7000*%
%ADD60C,0.5000*%
G36*
X314960Y768604D02*
X310896Y764540D01*
Y722376D01*
X299720Y711200D01*
X299720Y439420D01*
X317500Y421640D01*
X317500Y398780D01*
X299720D01*
Y172720D01*
X316090D01*
X316230Y172580D01*
Y151130D01*
X307340Y142240D01*
X275981Y142240D01*
X259568Y121920D01*
X238760D01*
X238760Y139700D01*
X244602Y145542D01*
X257302D01*
X279400Y167640D01*
Y402844D01*
X279146Y403098D01*
X244348D01*
X238252Y409194D01*
Y426466D01*
X279400D01*
Y680720D01*
X274320Y685800D01*
X246507D01*
X238760Y693547D01*
Y711200D01*
X257556Y711200D01*
X290830Y744474D01*
Y797560D01*
X314960D01*
Y768604D01*
D02*
G37*
G36*
X914400Y965200D02*
X993140Y886460D01*
X993140Y635254D01*
X980440D01*
X955040Y635254D01*
Y758190D01*
X980440Y788541D01*
X980440Y812600D01*
X961190Y831850D01*
X539750D01*
X539750Y866140D01*
X568210Y894600D01*
X642366Y968756D01*
X910844D01*
X914400Y965200D01*
D02*
G37*
G36*
X490220Y903668D02*
X414592Y828040D01*
X368300D01*
Y768874D01*
Y752930D01*
X345000Y729630D01*
X345000Y107256D01*
X307594Y69850D01*
X285750D01*
Y101600D01*
X323850Y139700D01*
Y311150D01*
X307594Y327406D01*
Y356870D01*
X323850D01*
Y612394D01*
X307594Y628650D01*
X307594Y641455D01*
X308864Y642620D01*
X323850D01*
X323850Y725170D01*
X323850Y767604D01*
Y807720D01*
X302260D01*
X279400Y830580D01*
Y911860D01*
X398780D01*
X439420Y952500D01*
X490220D01*
Y903668D01*
D02*
G37*
%LPC*%
G36*
X875000Y956495D02*
X872128Y956117D01*
X869453Y955008D01*
X867155Y953245D01*
X865391Y950947D01*
X864283Y948272D01*
X863905Y945400D01*
X864283Y942528D01*
X865391Y939853D01*
X867155Y937555D01*
X869453Y935791D01*
X872128Y934683D01*
X875000Y934305D01*
X877872Y934683D01*
X880547Y935791D01*
X882845Y937555D01*
X884609Y939853D01*
X885717Y942528D01*
X886095Y945400D01*
X885717Y948272D01*
X884609Y950947D01*
X882845Y953245D01*
X880547Y955008D01*
X877872Y956117D01*
X875000Y956495D01*
D02*
G37*
G36*
X900400Y931095D02*
X897528Y930717D01*
X894853Y929609D01*
X892555Y927845D01*
X890791Y925547D01*
X889683Y922872D01*
X889305Y920000D01*
X889683Y917128D01*
X890791Y914453D01*
X892555Y912155D01*
X894853Y910391D01*
X897528Y909283D01*
X900400Y908905D01*
X903272Y909283D01*
X905947Y910391D01*
X908245Y912155D01*
X910008Y914453D01*
X911117Y917128D01*
X911495Y920000D01*
X911117Y922872D01*
X910008Y925547D01*
X908245Y927845D01*
X905947Y929609D01*
X903272Y930717D01*
X900400Y931095D01*
D02*
G37*
G36*
X875000D02*
X872128Y930717D01*
X869453Y929609D01*
X867155Y927845D01*
X865391Y925547D01*
X864283Y922872D01*
X863905Y920000D01*
X864283Y917128D01*
X865391Y914453D01*
X867155Y912155D01*
X869453Y910391D01*
X872128Y909283D01*
X875000Y908905D01*
X877872Y909283D01*
X880547Y910391D01*
X882845Y912155D01*
X884609Y914453D01*
X885717Y917128D01*
X886095Y920000D01*
X885717Y922872D01*
X884609Y925547D01*
X882845Y927845D01*
X880547Y929609D01*
X877872Y930717D01*
X875000Y931095D01*
D02*
G37*
G36*
X943610Y905531D02*
X941269Y905066D01*
X939284Y903740D01*
X937958Y901755D01*
X937493Y899414D01*
X937958Y897073D01*
X939284Y895088D01*
X941269Y893762D01*
X943610Y893297D01*
X945951Y893762D01*
X947936Y895088D01*
X949262Y897073D01*
X949727Y899414D01*
X949262Y901755D01*
X947936Y903740D01*
X945951Y905066D01*
X943610Y905531D01*
D02*
G37*
G36*
X875000Y905695D02*
X872128Y905317D01*
X869453Y904209D01*
X867155Y902445D01*
X865391Y900147D01*
X864283Y897472D01*
X863905Y894600D01*
X864283Y891728D01*
X865391Y889053D01*
X867155Y886755D01*
X869453Y884992D01*
X872128Y883883D01*
X875000Y883505D01*
X877872Y883883D01*
X880547Y884992D01*
X882845Y886755D01*
X884609Y889053D01*
X885717Y891728D01*
X886095Y894600D01*
X885717Y897472D01*
X884609Y900147D01*
X882845Y902445D01*
X880547Y904209D01*
X877872Y905317D01*
X875000Y905695D01*
D02*
G37*
G36*
X900400Y880295D02*
X897528Y879917D01*
X894853Y878809D01*
X892555Y877045D01*
X890791Y874747D01*
X889683Y872072D01*
X889305Y869200D01*
X889683Y866328D01*
X890791Y863652D01*
X892555Y861355D01*
X894853Y859592D01*
X897528Y858483D01*
X900400Y858105D01*
X903272Y858483D01*
X905947Y859592D01*
X908245Y861355D01*
X910008Y863652D01*
X911117Y866328D01*
X911495Y869200D01*
X911117Y872072D01*
X910008Y874747D01*
X908245Y877045D01*
X905947Y878809D01*
X903272Y879917D01*
X900400Y880295D01*
D02*
G37*
G36*
X875000D02*
X872128Y879917D01*
X869453Y878809D01*
X867155Y877045D01*
X865391Y874747D01*
X864283Y872072D01*
X863905Y869200D01*
X864283Y866328D01*
X865391Y863652D01*
X867155Y861355D01*
X869453Y859592D01*
X872128Y858483D01*
X875000Y858105D01*
X877872Y858483D01*
X880547Y859592D01*
X882845Y861355D01*
X884609Y863652D01*
X885717Y866328D01*
X886095Y869200D01*
X885717Y872072D01*
X884609Y874747D01*
X882845Y877045D01*
X880547Y878809D01*
X877872Y879917D01*
X875000Y880295D01*
D02*
G37*
G36*
X952500Y862097D02*
X950159Y861632D01*
X948174Y860306D01*
X946848Y858321D01*
X946383Y855980D01*
X946848Y853639D01*
X948174Y851654D01*
X950159Y850328D01*
X952500Y849863D01*
X954841Y850328D01*
X956826Y851654D01*
X958152Y853639D01*
X958617Y855980D01*
X958152Y858321D01*
X956826Y860306D01*
X954841Y861632D01*
X952500Y862097D01*
D02*
G37*
G36*
X647700Y846858D02*
X645359Y846392D01*
X643374Y845066D01*
X642048Y843081D01*
X641582Y840740D01*
X642048Y838399D01*
X643374Y836414D01*
X645359Y835088D01*
X647700Y834622D01*
X650041Y835088D01*
X652026Y836414D01*
X653352Y838399D01*
X653818Y840740D01*
X653352Y843081D01*
X652026Y845066D01*
X650041Y846392D01*
X647700Y846858D01*
D02*
G37*
G36*
X435000Y902484D02*
X432659Y902018D01*
X430674Y900692D01*
X429348Y898707D01*
X428882Y896366D01*
X429348Y894025D01*
X430104Y892893D01*
X429348Y891761D01*
X428882Y889420D01*
X429348Y887079D01*
X430674Y885094D01*
X432659Y883768D01*
X435000Y883303D01*
X437341Y883768D01*
X439326Y885094D01*
X440652Y887079D01*
X441118Y889420D01*
X440652Y891761D01*
X439896Y892893D01*
X440652Y894025D01*
X441118Y896366D01*
X440652Y898707D01*
X439326Y900692D01*
X437341Y902018D01*
X435000Y902484D01*
D02*
G37*
G36*
X397000Y901102D02*
X392883Y900696D01*
X388925Y899495D01*
X385277Y897545D01*
X382079Y894921D01*
X379455Y891723D01*
X377505Y888075D01*
X376304Y884117D01*
X375898Y880000D01*
X376304Y875883D01*
X377505Y871925D01*
X379455Y868277D01*
X382079Y865079D01*
X385277Y862455D01*
X388925Y860505D01*
X392883Y859304D01*
X397000Y858898D01*
X401117Y859304D01*
X405075Y860505D01*
X408723Y862455D01*
X411921Y865079D01*
X414545Y868277D01*
X416495Y871925D01*
X417696Y875883D01*
X418102Y880000D01*
X417696Y884117D01*
X416495Y888075D01*
X414545Y891723D01*
X411921Y894921D01*
X408723Y897545D01*
X405075Y899495D01*
X401117Y900696D01*
X397000Y901102D01*
D02*
G37*
G36*
X350000D02*
X345883Y900696D01*
X341925Y899495D01*
X338277Y897545D01*
X335079Y894921D01*
X332455Y891723D01*
X330505Y888075D01*
X329304Y884117D01*
X328898Y880000D01*
X329304Y875883D01*
X330505Y871925D01*
X332455Y868277D01*
X335079Y865079D01*
X338277Y862455D01*
X341925Y860505D01*
X345883Y859304D01*
X350000Y858898D01*
X354117Y859304D01*
X358075Y860505D01*
X361723Y862455D01*
X364921Y865079D01*
X367545Y868277D01*
X369495Y871925D01*
X370696Y875883D01*
X371102Y880000D01*
X370696Y884117D01*
X369495Y888075D01*
X367545Y891723D01*
X364921Y894921D01*
X361723Y897545D01*
X358075Y899495D01*
X354117Y900696D01*
X350000Y901102D01*
D02*
G37*
%LPD*%
D40*
X44196Y133698D02*
X72550D01*
X190697Y506025D02*
X260153D01*
X186690Y510032D02*
X190697Y506025D01*
X186690Y510032D02*
Y530385D01*
X162650Y311060D02*
Y379025D01*
X98238Y391325D02*
X100457Y390525D01*
X163644Y312054D02*
X163972D01*
X162650Y311060D02*
X163644Y312054D01*
X272034Y486156D02*
Y551044D01*
X265176Y479298D02*
X272034Y486156D01*
X260153Y506025D02*
X264160Y510032D01*
Y520700D01*
X46306Y474329D02*
X46847Y473788D01*
X31590Y184498D02*
X72550D01*
X112522Y404876D02*
Y499110D01*
X173482Y479298D02*
X265176D01*
X174150Y542925D02*
X186690Y530385D01*
X182405Y560070D02*
X199550Y542925D01*
X118110Y560070D02*
X182405D01*
X72550Y605630D02*
X118110Y560070D01*
X72550Y605630D02*
Y673100D01*
X119507Y542925D02*
X123350D01*
X60452Y601980D02*
X119507Y542925D01*
X60452Y601980D02*
Y804265D01*
X90297Y517525D02*
X97950D01*
X35814Y572008D02*
X90297Y517525D01*
X86393Y480568D02*
X97950Y492125D01*
X63645Y480568D02*
X86393D01*
X60089Y484124D02*
X63645Y480568D01*
X64707Y473788D02*
X71769Y466725D01*
X46847Y473788D02*
X64707D01*
X46306D02*
X46847D01*
X71769Y466725D02*
X72550D01*
X61877Y454725D02*
X85950D01*
X53306Y463296D02*
X61877Y454725D01*
X27178Y465074D02*
X64262Y427990D01*
X16002Y465074D02*
X27178D01*
X82075Y374650D02*
X97950Y390525D01*
X50292Y374650D02*
X82075D01*
X111252Y336042D02*
Y379730D01*
X100457Y390525D02*
X111252Y379730D01*
X222758Y294894D02*
Y343662D01*
X207264Y279400D02*
X222758Y294894D01*
X196342Y279400D02*
X207264D01*
X162650Y379025D02*
X174150Y390525D01*
X198374Y296418D02*
Y308102D01*
X188050Y318426D02*
X198374Y308102D01*
X188050Y318426D02*
Y379025D01*
X186436Y269494D02*
X196342Y279400D01*
X186436Y256373D02*
Y269494D01*
X177967Y247904D02*
X186436Y256373D01*
X136304Y247904D02*
X177967D01*
X123350Y234950D02*
X136304Y247904D01*
X134850Y385762D02*
Y531425D01*
X123350Y390525D02*
Y517525D01*
X105918Y505714D02*
X112522Y499110D01*
X84361Y505714D02*
X105918D01*
X72550Y517525D02*
X84361Y505714D01*
X134620Y376395D02*
Y385532D01*
X134850Y385762D01*
X123350Y542925D02*
X134850Y531425D01*
X147320Y505460D02*
X173482Y479298D01*
X147320Y505460D02*
Y516095D01*
X148750Y517525D01*
X123350Y365125D02*
X134620Y376395D01*
X213614Y305054D02*
Y351061D01*
X162052Y273050D02*
X173990D01*
X97950Y337152D02*
X162052Y273050D01*
X97950Y337152D02*
Y365125D01*
X166116Y281178D02*
X173736D01*
X111252Y336042D02*
X166116Y281178D01*
X199550Y365125D02*
X213614Y351061D01*
X132842Y579120D02*
X199429D01*
X110490Y601472D02*
X132842Y579120D01*
X110490Y601472D02*
Y660560D01*
X125476Y570738D02*
X192024D01*
X97950Y598264D02*
X125476Y570738D01*
X97950Y598264D02*
Y647700D01*
X188050Y379025D02*
X199550Y390525D01*
X174150Y328803D02*
Y365125D01*
X845504Y290683D02*
X845900Y291079D01*
X199429Y579120D02*
X222845Y555704D01*
X192024Y570738D02*
X212950Y549812D01*
X51816Y586082D02*
Y810006D01*
X44126Y579501D02*
Y814000D01*
X35814Y572008D02*
Y788162D01*
X27178Y565912D02*
Y798576D01*
X43942Y579317D02*
X94234Y529025D01*
X51816Y586082D02*
X94973Y542925D01*
X27178Y565912D02*
X72550Y520540D01*
X43942Y579317D02*
X44126Y579501D01*
X67310Y825500D02*
X97950D01*
X51816Y810006D02*
X67310Y825500D01*
X60452Y804265D02*
X70187Y814000D01*
X72550Y517525D02*
Y520540D01*
X94234Y529025D02*
X111850D01*
X123350Y517525D01*
X94973Y542925D02*
X97950D01*
X70187Y814000D02*
X111850D01*
X123350Y825500D01*
X222845Y545030D02*
Y555704D01*
Y545030D02*
X224950Y542925D01*
X31750Y493268D02*
X71407D01*
X72550Y492125D01*
X31095Y446403D02*
X61516Y415983D01*
X72492D01*
X72550Y415925D01*
X64262Y427990D02*
X85090D01*
X97950Y440850D01*
Y441325D01*
X31750Y423926D02*
X51751Y403925D01*
X48561Y390525D02*
X72550D01*
X40306Y398780D02*
X48561Y390525D01*
X51751Y403925D02*
X82869D01*
X24259Y446403D02*
X31095D01*
X46306Y474329D02*
Y474582D01*
X38862Y484124D02*
X60089D01*
X23876Y446786D02*
X24259Y446403D01*
X85950Y454725D02*
X97950Y466725D01*
X91178Y411859D02*
X95244Y415925D01*
X90803Y411859D02*
X91178D01*
X82869Y403925D02*
X90803Y411859D01*
X71280Y801370D02*
X72550Y800100D01*
X212950Y529525D02*
Y549812D01*
Y529525D02*
X224950Y517525D01*
X97950Y673100D02*
X110490Y660560D01*
X15240Y209550D02*
X72550D01*
X23368Y195072D02*
X24446Y196150D01*
X31496Y184404D02*
X31590Y184498D01*
X42988Y170750D02*
X84550D01*
X42672Y170434D02*
X42988Y170750D01*
X95244Y415925D02*
X97950D01*
X16825Y145351D02*
X16826Y145350D01*
X15939Y145351D02*
X16825D01*
X15748Y145542D02*
X15939Y145351D01*
X26607Y132779D02*
X27178Y133350D01*
X23051Y132779D02*
X26607D01*
X22860Y132588D02*
X23051Y132779D01*
X27178Y133350D02*
X72550D01*
X81186Y91186D02*
X97950Y107950D01*
X49784Y91186D02*
X81186D01*
X34544Y119126D02*
X35368Y119950D01*
X31750Y119126D02*
X34544D01*
X35368Y119950D02*
X84550D01*
X97950Y133350D01*
X42926Y107950D02*
X72550D01*
X84550Y196150D02*
X97950Y209550D01*
X24446Y196150D02*
X84550D01*
Y170750D02*
X97950Y184150D01*
X84550Y145350D02*
X97950Y158750D01*
X16826Y145350D02*
X84550D01*
D42*
X477600Y443479D02*
D03*
Y418079D02*
D03*
Y392679D02*
D03*
Y367279D02*
D03*
Y341879D02*
D03*
Y316479D02*
D03*
Y291079D02*
D03*
Y265679D02*
D03*
X845900D02*
D03*
Y291079D02*
D03*
Y316479D02*
D03*
Y341879D02*
D03*
Y367279D02*
D03*
Y392679D02*
D03*
Y418079D02*
D03*
Y443479D02*
D03*
X900400Y869200D02*
D03*
Y894600D02*
D03*
Y920000D02*
D03*
Y945400D02*
D03*
X875000D02*
D03*
Y920000D02*
D03*
Y894600D02*
D03*
Y869200D02*
D03*
X123350Y909800D02*
D03*
D43*
X753190Y430779D02*
D03*
Y456179D02*
D03*
Y405379D02*
D03*
Y379979D02*
D03*
Y354579D02*
D03*
Y329179D02*
D03*
Y303779D02*
D03*
Y278379D02*
D03*
Y252979D02*
D03*
X572850D02*
D03*
Y278379D02*
D03*
Y303779D02*
D03*
Y329179D02*
D03*
Y354579D02*
D03*
Y379979D02*
D03*
Y405379D02*
D03*
Y456179D02*
D03*
Y430779D02*
D03*
D44*
X839600Y678000D02*
D03*
X865000D02*
D03*
X890400D02*
D03*
X941200D02*
D03*
X966600Y652600D02*
D03*
X941200D02*
D03*
X915800D02*
D03*
X890400D02*
D03*
X865000D02*
D03*
X839600D02*
D03*
X814200D02*
D03*
X788800D02*
D03*
X763400D02*
D03*
X738000D02*
D03*
X712600D02*
D03*
X687200D02*
D03*
X661800D02*
D03*
X636400D02*
D03*
Y678000D02*
D03*
Y703400D02*
D03*
Y728800D02*
D03*
Y754200D02*
D03*
Y779600D02*
D03*
Y805000D02*
D03*
X661800D02*
D03*
X687200D02*
D03*
X712600D02*
D03*
X738000D02*
D03*
X763400D02*
D03*
X788800D02*
D03*
X814200D02*
D03*
X839600D02*
D03*
X865000D02*
D03*
X890400D02*
D03*
X915800D02*
D03*
X941200D02*
D03*
X966600D02*
D03*
D45*
X350000Y880000D02*
D03*
X416000Y975300D02*
D03*
X284000D02*
D03*
X397000Y880000D02*
D03*
X303000D02*
D03*
D46*
X153000Y910000D02*
D03*
D47*
X200000Y940000D02*
D03*
D48*
Y880000D02*
D03*
D49*
X547450Y595312D02*
D03*
X572850D02*
D03*
X598250D02*
D03*
X623650D02*
D03*
X649050D02*
D03*
X674450D02*
D03*
X699850D02*
D03*
X725250D02*
D03*
X588090Y112712D02*
D03*
X613490D02*
D03*
X664290D02*
D03*
X689690D02*
D03*
X715090D02*
D03*
X740490D02*
D03*
X765890D02*
D03*
X791290D02*
D03*
X816690D02*
D03*
X638890D02*
D03*
X547450D02*
D03*
X522050D02*
D03*
X496650D02*
D03*
X471250D02*
D03*
X445850D02*
D03*
X420450D02*
D03*
X395050D02*
D03*
X369650D02*
D03*
Y595312D02*
D03*
X395050D02*
D03*
X420450D02*
D03*
X445850D02*
D03*
X471250D02*
D03*
X496650D02*
D03*
X224950Y825500D02*
D03*
X199550D02*
D03*
X174150D02*
D03*
X148750D02*
D03*
X123350D02*
D03*
X97950D02*
D03*
X250350Y800100D02*
D03*
X224950D02*
D03*
X199550D02*
D03*
X174150D02*
D03*
X148750D02*
D03*
X123350D02*
D03*
X97950D02*
D03*
X72550D02*
D03*
X250350Y774700D02*
D03*
X224950D02*
D03*
X97950D02*
D03*
X72550D02*
D03*
X250350Y749300D02*
D03*
X224950D02*
D03*
X97950D02*
D03*
X72550D02*
D03*
X250350Y723900D02*
D03*
X224950D02*
D03*
X97950D02*
D03*
X72550D02*
D03*
X250350Y698500D02*
D03*
X224950D02*
D03*
X97950D02*
D03*
X72550D02*
D03*
X250350Y673100D02*
D03*
X224950D02*
D03*
X199550D02*
D03*
X174150D02*
D03*
X148750D02*
D03*
X123350D02*
D03*
X97950D02*
D03*
X72550D02*
D03*
X224950Y647700D02*
D03*
X199550D02*
D03*
X174150D02*
D03*
X148750D02*
D03*
X123350D02*
D03*
X97950D02*
D03*
X224950Y260350D02*
D03*
X199550D02*
D03*
X174150D02*
D03*
X148750D02*
D03*
X123350D02*
D03*
X97950D02*
D03*
X250350Y234950D02*
D03*
X224950D02*
D03*
X199550D02*
D03*
X174150D02*
D03*
X148750D02*
D03*
X123350D02*
D03*
X97950D02*
D03*
X72550D02*
D03*
X250350Y209550D02*
D03*
X224950D02*
D03*
X97950D02*
D03*
X72550D02*
D03*
X250350Y184150D02*
D03*
X224950D02*
D03*
X97950D02*
D03*
X72550D02*
D03*
X250350Y158750D02*
D03*
X224950D02*
D03*
X97950D02*
D03*
X72550D02*
D03*
X250350Y133350D02*
D03*
X224950D02*
D03*
X97950D02*
D03*
X72550D02*
D03*
X250350Y107950D02*
D03*
X224950D02*
D03*
X199550D02*
D03*
X174150D02*
D03*
X148750D02*
D03*
X123350D02*
D03*
X97950D02*
D03*
X72550D02*
D03*
X224950Y82550D02*
D03*
X199550D02*
D03*
X174150D02*
D03*
X148750D02*
D03*
X123350D02*
D03*
X97950D02*
D03*
X224950Y542925D02*
D03*
X199550D02*
D03*
X174150D02*
D03*
X148750D02*
D03*
X123350D02*
D03*
X97950D02*
D03*
X250350Y517525D02*
D03*
X224950D02*
D03*
X199550D02*
D03*
X174150D02*
D03*
X148750D02*
D03*
X123350D02*
D03*
X97950D02*
D03*
X72550D02*
D03*
X250350Y492125D02*
D03*
X224950D02*
D03*
X97950D02*
D03*
X72550D02*
D03*
X250350Y466725D02*
D03*
X224950D02*
D03*
X97950D02*
D03*
X72550D02*
D03*
X250350Y441325D02*
D03*
X224950D02*
D03*
X97950D02*
D03*
X72550D02*
D03*
X250350Y415925D02*
D03*
X224950D02*
D03*
X97950D02*
D03*
X72550D02*
D03*
X250350Y390525D02*
D03*
X224950D02*
D03*
X199550D02*
D03*
X174150D02*
D03*
X148750D02*
D03*
X123350D02*
D03*
X97950D02*
D03*
X72550D02*
D03*
X224950Y365125D02*
D03*
X199550D02*
D03*
X174150D02*
D03*
X148750D02*
D03*
X123350D02*
D03*
X97950D02*
D03*
D50*
X965000Y960000D02*
D03*
Y40000D02*
D03*
X40000Y960000D02*
D03*
D51*
X943610Y899414D02*
D03*
X212598Y68580D02*
D03*
X356362Y191008D02*
D03*
X163972Y312054D02*
D03*
X309850Y782350D02*
D03*
X302260Y789940D02*
D03*
X310896Y820360D02*
D03*
X376174Y784078D02*
D03*
Y811000D02*
D03*
X543560Y683260D02*
D03*
X647700Y840740D02*
D03*
X604520Y650748D02*
D03*
X264160Y520700D02*
D03*
X326390Y635254D02*
D03*
X303000Y76962D02*
D03*
X315722Y351282D02*
D03*
X327406Y351028D02*
D03*
X404912Y810748D02*
D03*
Y784078D02*
D03*
X918210Y615950D02*
D03*
X952500Y855980D02*
D03*
X556260Y866140D02*
D03*
X463550Y941050D02*
D03*
X435000Y896366D02*
D03*
X581660Y785500D02*
D03*
X566928Y877570D02*
D03*
X561848Y871728D02*
D03*
X450088Y268224D02*
D03*
X474980Y941070D02*
D03*
X825754Y882202D02*
D03*
Y924052D02*
D03*
X317246Y635254D02*
D03*
X312420Y409448D02*
D03*
X307594Y158750D02*
D03*
X293624Y76962D02*
D03*
X210820Y430022D02*
D03*
X193040Y493268D02*
D03*
X352044Y454660D02*
D03*
X112014Y404876D02*
D03*
X284229Y787115D02*
D03*
X203454Y208026D02*
D03*
X376174Y645922D02*
D03*
X222758Y343662D02*
D03*
X213614Y305054D02*
D03*
X173990Y273050D02*
D03*
X173736Y281178D02*
D03*
X354838Y514096D02*
D03*
X160528Y455676D02*
D03*
X173228Y434086D02*
D03*
X566166Y642112D02*
D03*
X600000Y942830D02*
D03*
X575000D02*
D03*
X524764Y941672D02*
D03*
X435000Y889420D02*
D03*
X391382Y797560D02*
D03*
X588772Y785368D02*
D03*
X316090Y369558D02*
D03*
X316230Y390640D02*
D03*
Y675640D02*
D03*
X316090Y654558D02*
D03*
X198374Y296418D02*
D03*
X174150Y326898D02*
D03*
X272034Y551044D02*
D03*
X27178Y798576D02*
D03*
X35814Y788162D02*
D03*
X44126Y814000D02*
D03*
X40306Y398780D02*
D03*
X31750Y493268D02*
D03*
X38862Y484124D02*
D03*
X46306Y473788D02*
D03*
X53306Y463296D02*
D03*
X16002Y465074D02*
D03*
X50292Y374650D02*
D03*
X31750Y423926D02*
D03*
X23876Y446786D02*
D03*
X15240Y209550D02*
D03*
X23368Y195072D02*
D03*
X31496Y184404D02*
D03*
X42672Y170434D02*
D03*
X15748Y145542D02*
D03*
X22860Y132588D02*
D03*
X49784Y91186D02*
D03*
X31750Y119126D02*
D03*
X41402Y108966D02*
D03*
X279654Y133712D02*
D03*
Y112712D02*
D03*
D59*
X753190Y443479D02*
D03*
Y418079D02*
D03*
Y392679D02*
D03*
Y367279D02*
D03*
Y341879D02*
D03*
Y316479D02*
D03*
Y291079D02*
D03*
Y265679D02*
D03*
X572850D02*
D03*
Y291079D02*
D03*
Y316479D02*
D03*
Y341879D02*
D03*
Y367279D02*
D03*
Y392679D02*
D03*
Y418079D02*
D03*
Y443479D02*
D03*
D60*
X753190Y316479D02*
X845900D01*
X750650D02*
X753190D01*
Y341879D02*
X845900D01*
X750650D02*
X753190D01*
Y367279D02*
X845900D01*
X750650D02*
X753190D01*
Y443479D02*
X845900D01*
X750650D02*
X753190D01*
Y392679D02*
X845900D01*
X750650D02*
X753190D01*
Y418079D02*
X845900D01*
X750650D02*
X753190D01*
Y291079D02*
X845900D01*
X750650D02*
X753190D01*
Y265679D02*
X845900D01*
X750650D02*
X753190D01*
X477600D02*
X572850D01*
X477600Y291079D02*
X572850D01*
X477600Y316479D02*
X572850D01*
X477600Y341879D02*
X572850D01*
X477600Y367279D02*
X572850D01*
X477600Y392679D02*
X572850D01*
X477600Y418079D02*
X572850D01*
X477600Y443479D02*
X572850D01*
M02*
