M48
;Layer_Color=9474304
;FILE_FORMAT=2:5
INCH,LZ
;TYPE=PLATED
;TYPE=NON_PLATED
T2F00S00C0.04724
%
G90
G05
T02
G00X001385Y00075
M15
G01X007015
M16
G00X001385Y00175
M15
G01X007015
M16
G00X001385Y00275
M15
G01X007015
M16
G00X001385Y00375
M15
G01X007015
M16
G00X001385Y00475
M15
G01X007015
M16
G00X008485Y00475
M15
G01X014115
M16
G00X008485Y00375
M15
G01X014115
M16
G00X008485Y00275
M15
G01X014115
M16
G00X008485Y00175
M15
G01X014115
M16
G00X008485Y00075
M15
G01X014115
M16
G00X008485Y00575
M15
G01X014115
M16
G00X008485Y00675
M15
G01X014115
M16
G00X008485Y00775
M15
G01X014115
M16
G00X008485Y00875
M15
G01X014115
M16
G00X001385Y00875
M15
G01X007015
M16
G00X001385Y00775
M15
G01X007015
M16
G00X001385Y00675
M15
G01X007015
M16
G00X001385Y00575
M15
G01X007015
M16
M17
M30
