M48
;Layer_Color=9474304
;FILE_FORMAT=2:5
INCH,LZ
;TYPE=PLATED
;TYPE=NON_PLATED
T2F00S00C0.05118
%
G90
G05
T02
G00X0014047Y00075
M15
G01X0069953
M16
G00X0014047Y00175
M15
G01X0069953
M16
G00X0014047Y00275
M15
G01X0069953
M16
G00X0014047Y00375
M15
G01X0069953
M16
G00X0014047Y00475
M15
G01X0069953
M16
G00X0085047Y00475
M15
G01X0140953
M16
G00X0085047Y00375
M15
G01X0140953
M16
G00X0085047Y00275
M15
G01X0140953
M16
G00X0085047Y00175
M15
G01X0140953
M16
G00X0085047Y00075
M15
G01X0140953
M16
G00X0085047Y00575
M15
G01X0140953
M16
G00X0085047Y00675
M15
G01X0140953
M16
G00X0085047Y00775
M15
G01X0140953
M16
G00X0085047Y00875
M15
G01X0140953
M16
G00X0014047Y00875
M15
G01X0069953
M16
G00X0014047Y00775
M15
G01X0069953
M16
G00X0014047Y00675
M15
G01X0069953
M16
G00X0014047Y00575
M15
G01X0069953
M16
M17
M30
