M48
;Layer_Color=9474304
;FILE_FORMAT=2:5
INCH,LZ
;TYPE=PLATED
T1F00S00C0.01181
T2F00S00C0.03543
T3F00S00C0.04331
T5F00S00C0.07087
;TYPE=NON_PLATED
T7F00S00C0.12598
%
T01
X00196Y00359
X00163Y00429
X00125Y00469
X0009Y00522
X00837Y0027
X01156Y00303
X0119291
X01101Y0044375
Y0052642
X01772Y01056
X01403Y00752
X01211Y00625
X00801Y00819
X00781Y01167
X00841Y01201
X00877Y01353
X0068563Y01287
X0064556Y0122856
X00684Y01107
X00685Y01075
X00682Y01709
X00632Y01794
X0076Y01942
X0083Y01693
X0123Y01612
X01245Y0153795
X0124445Y0145495
X01243Y01383
X01289Y01382
X01386Y0179
X01397Y02024
X0104Y0205
X00094Y01759
X00125Y01669
X0015868Y0157
X00198Y01475
X00063Y01831
X00062Y00573
X01071Y0216947
X01249Y02501
X01285
X0124445Y02577
X01245Y0266
X01481Y02543
Y0308692
Y0319291
X0154087Y0314
X0159414Y0319192
Y0308692
X0121988Y0308012
X0119Y0311
X0111901Y0309888
X01224Y0322976
X0017372Y0320472
X00107Y03144
X00141Y03103
X017126Y0350165
Y03529
X02232Y03455
X02212Y03432
X0219Y0341
X0229Y0309252
X02318Y03092
X0255Y0331
X0238Y02562
X02229Y02528
X0214Y0269
X03615Y02425
X0375Y0337
X03715Y03541
X03251Y0347324
Y03638
X0236221Y0371193
X0226378
X02066Y0370737
X0187Y03705
X01825Y0370492
T02
X0028563Y00425
Y00525
X0038563
Y00425
X0048563
X0058563
X0068563
X0078563
X0088563
Y00525
X0098563
Y00425
X0088563Y00325
X0078563
X0068563
X0058563
X0048563
X0038563
X0145531Y0044375
X0155532
X0165532
X0175531
X0185531
X0195531
X0205532
X0215531
X0231532
X0241531
X0251532
X0261531
X0271532
X0281532
X0291531
X0301532
X0311531
X0321532
X0098563Y00625
Y00725
Y00825
Y00925
X0088563
Y01025
X0078563
X0068563
X0058563
X0048563
X0038563
Y00925
X0048563
X0058563
X0068563
X0078563
X0088563Y00825
Y00725
Y00625
X0038563
Y00725
Y00825
X0028563
Y00925
Y00725
Y00625
Y015375
Y016375
Y017375
Y018375
Y019375
Y020375
X0038563
X0048563
X0058563
X0068563
X0078563
X0088563
X0098563
Y019375
X0088563
Y018375
X0098563
Y017375
X0088563
Y016375
X0098563
Y015375
X0088563
X0078563
X0068563
X0058563
X0048563
X0038563
Y016375
Y017375
Y018375
Y019375
Y014375
X0048563
X0058563
X0068563
X0078563
X0088563
Y021375
X0078563
X0068563
X0058563
X0048563
X0038563
Y0255
Y0265
Y0275
Y0285
Y0295
Y0305
Y0315
Y0325
X0048563
X0058563
X0068563
X0078563
X0088563
Y0315
X0098563
Y0305
X0088563
Y0295
X0098563
Y0285
X0088563
Y0275
X0098563
Y0265
X0088563
X0078563
X0068563
X0058563
X0048563
Y0255
X0058563
X0068563
X0078563
X0088563
X0078563Y0315
X0068563
X0058563
X0048563
X0028563
Y0305
Y0295
Y0285
Y0275
Y0265
X0145531Y0234375
X0155532
X0165532
X0175531
X0185531
X0195531
X0215531
X0225532
X0235531
X0245532
X0255532
X0265531
X0275532
X0285531
T03
X0333032Y0104598
Y0114598
Y0124598
Y0134598
Y0144598
Y0154598
Y0164598
Y0174598
X0188031
Y0164598
Y0154598
Y0144598
Y0134598
Y0124598
Y0114598
Y0104598
X0048563Y0358189
X0250551Y0316929
Y0306929
Y0296929
Y0286929
Y0276929
Y0266929
Y0256929
X0260551
X0270551
X0280551
X0290551
X0300551
X0310551
X0320551
Y0316929
X0310551
X0300551
X0290551
X0280551
X0270551
X0260551
X0330551
X0340551
X0350551
X0360551
X0370551
X0380551
X0354488Y0342205
Y0352205
Y0362205
X0344488
Y0352205
Y0342205
X0340551Y0266929
X0330551
Y0256929
X0340551
X0350551
Y0266929
X0370551
Y0256929
X0380551
X0360551
X0354488Y0372205
X0344488
T05
X0119291Y0346457
X0137795
X0156299
X0163779Y0383976
X0111811
T07
X0379921Y0015748
Y0377953
X0015748
M30
