M48
;Layer_Color=9474304
;FILE_FORMAT=2:5
INCH,LZ
;TYPE=PLATED
T4F00S00C0.04331
;TYPE=NON_PLATED
T6F00S00C0.04724
%
G90
G05
T04
G00X0060236Y0362008
M15
G01Y0354528
M16
G00X0083465Y0346457
M15
G01X0074016
M16
G00X008248Y0370079
M15
G01X0075
M16
T06
G00X0200335Y0099598
M15
G01X0250728
M16
G00X0200335Y0109598
M15
G01X0250728
M16
G00X0200335Y0119598
M15
G01X0250728
M16
G00X0200335Y0129598
M15
G01X0250728
M16
G00X0200335Y0139598
M15
G01X0250728
M16
G00X0200335Y0149598
M15
G01X0250728
M16
G00X0200335Y0159598
M15
G01X0250728
M16
G00X0200335Y0169598
M15
G01X0250728
M16
G00X0200335Y0179598
M15
G01X0250728
M16
G00X0271335Y0179598
M15
G01X0321728
M16
G00X0271335Y0169598
M15
G01X0321728
M16
G00X0271335Y0159598
M15
G01X0321728
M16
G00X0271335Y0149598
M15
G01X0321728
M16
G00X0271335Y0139598
M15
G01X0321728
M16
G00X0271335Y0129598
M15
G01X0321728
M16
G00X0271335Y0119598
M15
G01X0321728
M16
G00X0271335Y0109598
M15
G01X0321728
M16
G00X0271335Y0099598
M15
G01X0321728
M16
M17
M30
